SplineFontDB: 3.0
FontName: SmolenskyUnicode
FullName: Smolensky Unicode
FamilyName: SmolenskyUnicode
Weight: Medium
Copyright: Smolensky Unicode is a font for archaic Znamenny Notation.\n\nCopyright 2017 Aleksandr Andreev. Slavonic Computing Initiative.\nhttp://sci.ponomar.net/
UComments: "2017-2-1: Created." 
Version: 1.000
ItalicAngle: 0
UnderlinePosition: -100
UnderlineWidth: 50
Ascent: 800
Descent: 200
LayerCount: 2
Layer: 0 0 "Back"  1
Layer: 1 0 "Fore"  0
XUID: [1021 187 1807321670 11892138]
FSType: 8
OS2Version: 0
OS2_WeightWidthSlopeOnly: 0
OS2_UseTypoMetrics: 1
CreationTime: 1485932044
ModificationTime: 1523023105
PfmFamily: 17
TTFWeight: 500
TTFWidth: 5
LineGap: 90
VLineGap: 0
OS2TypoAscent: 0
OS2TypoAOffset: 1
OS2TypoDescent: 0
OS2TypoDOffset: 1
OS2TypoLinegap: 90
OS2WinAscent: 0
OS2WinAOffset: 1
OS2WinDescent: 0
OS2WinDOffset: 1
HheadAscent: 0
HheadAOffset: 1
HheadDescent: 0
HheadDOffset: 1
OS2Vendor: 'PfEd'
Lookup: 4 0 0 "'ccmp' Znamenny Ligatures"  {"'ccmp' Znamenny Ligatures 0-1"  } ['ccmp' ('DFLT' <'dflt' > 'latn' <'dflt' > ) ]
Lookup: 260 0 0 "'mark' Mark Positioning"  {"'mark' Mark Positioning-1"  } ['mark' ('DFLT' <'dflt' > 'latn' <'dflt' > ) ]
MarkAttachClasses: 1
DEI: 91125

StartChar: uniEE73
Encoding: 61043 61043 0
Width: 611
VWidth: 0
Flags: W
HStem: 22 24<102.169 178.331> 91 24<439.926 553.246>
VStem: 40 57<48.1818 115.02> 261 37<101.721 128.27>
LayerCount: 2
Fore
SplineSet
298 138 m 1
 307 120 320 93 328 82 c 1
 368 94 470 115 528 115 c 0
 554 115 571 111 571 101 c 0
 572 84 564 79 554 79 c 0
 538 79 516 91 516 91 c 1
 455 91 243 25 120 22 c 1
 72 22 40 33 40 64 c 0
 41 104 67 128 96 128 c 0
 103 128 105 124 105 119 c 0
 105 108 97 90 97 74 c 0
 97 59 105 46 136 46 c 0
 148 46 163 47 181 50 c 1
 159 97 l 1
 183 107 185 106 204 114 c 1
 215 101 218 88 234 61 c 1
 249 64 265 68 282 72 c 1
 274 88 l 2
 267 101 265 113 261 126 c 1
 298 138 l 1
EndSplineSet
Validated: 1
EndChar

StartChar: uniEE70
Encoding: 61040 61040 1
Width: 709
VWidth: 0
Flags: W
HStem: 22 21G<102 120> 183 35<569.875 668.919>
DStem2: 120 63 139 28 0.954201 0.299166<-2.3985 566.667>
AnchorPoint: "Podchashie" 228 3 basechar 0
AnchorPoint: "Tonal" 272 157 basechar 0
LayerCount: 2
Fore
SplineSet
40 96 m 5
 51 99 63 101 73 101 c 4
 88 101 102 97 110 84 c 4
 115 75 120 63 120 63 c 29
 608 216 l 22
 613 218 629 218 641 218 c 4
 645 218 648 218 651 218 c 12
 660 218 670 218 669 204 c 5
 670 184 662 183 656 183 c 4
 652 183 649 183 645 183 c 28
 628 183 622 182 601 177 c 5
 486 141 343 99 139 28 c 12
 130 26 125 22 115 22 c 31
 89 22 48 88 40 96 c 5
EndSplineSet
Validated: 1
EndChar

StartChar: uniEE7B
Encoding: 61051 61051 2
Width: 400
VWidth: 0
Flags: W
HStem: 22 92<98.2969 140> 28 99<305 342> 73 41<43.1775 88.6264> 102 25<317.417 358.042>
VStem: 81 77<30.4389 61.5846>
DStem2: 200 72 228 50 0.895365 0.445334<-13.3422 53.2202> 283 109 221 132 0.586697 -0.809807<-58.7881 -9.19709 30.8057 77.6033>
LayerCount: 2
Fore
SplineSet
107 22 m 0x88
 95 22 84 28 81 44 c 0
 79 53 87 53 95 62 c 0
 102 69 95 75 89 78 c 0
 81 81 75 70 67 73 c 0
 54 78 51 87 40 96 c 1
 40 97 l 0
 40 109 61 114 81 114 c 0x28
 121 114 155 90 158 59 c 1
 158 38 127 22 107 22 c 0x88
342 127 m 0x48
 352 127 360 115 360 107 c 0
 360 105 359 103 356 102 c 0x18
 339 98 321 91 301 84 c 1
 325 50 l 2
 326 48 327 46 327 45 c 0
 327 36 315 28 305 28 c 0
 300 28 295 30 292 34 c 2
 267 69 l 1
 254 63 242 57 228 50 c 0
 221 47 212 39 200 41 c 0
 193 42 188 48 188 56 c 0
 188 63 193 68 200 72 c 0
 218 81 233 88 248 95 c 1
 221 132 l 2
 220 133 220 135 220 136 c 0
 220 145 233 153 243 153 c 0
 248 153 252 152 255 148 c 2
 283 109 l 1
 293 113 325 127 342 127 c 0x48
EndSplineSet
Validated: 1
EndChar

StartChar: uniEE81
Encoding: 61057 61057 3
Width: 283
VWidth: 0
Flags: W
HStem: 21 38<109.639 188.729> 154 48<100.062 155.501>
VStem: 98 59<156.231 199.521> 201 42<74.657 124.884>
LayerCount: 2
Fore
SplineSet
157 172 m 0
 157 161 142 154 131 154 c 0
 113 154 98 171 98 185 c 0
 98 196 110 202 122 202 c 0
 139 202 157 190 157 172 c 0
220 125 m 27
 233 125 243 115 243 100 c 0
 243 77 242 65 226 47 c 8
 207 26 186 21 157 21 c 19
 111 21 85 38 62 63 c 8
 49 77 40 90 40 105 c 0
 40 115 52 122 63 122 c 0
 67 122 71 121 74 119 c 8
 93 107 94 89 112 76 c 24
 126 65 136 59 154 59 c 27
 168 59 179 63 188 74 c 24
 199 88 191 103 201 118 c 24
 205 125 212 125 220 125 c 27
EndSplineSet
Validated: 1
EndChar

StartChar: uniEE87
Encoding: 61063 61063 4
Width: 294
VWidth: 0
Flags: W
HStem: 22 141<147 153>
VStem: 40 214
LayerCount: 2
Fore
SplineSet
133 149 m 0
 133 160 147 163 157 163 c 0
 166 163 171 160 177 153 c 0
 185 145 254 80 254 50 c 0
 254 40 248 37 241 37 c 0
 232 37 222 41 217 46 c 8
 183 75 168 97 141 133 c 16
 137 138 133 143 133 149 c 0
40 146 m 0
 40 156 53 160 61 160 c 0
 76 160 81 157 88 148 c 16
 96 137 161 67 161 36 c 0
 161 27 153 22 144 22 c 0
 135 22 127 27 120 34 c 8
 86 67 73 91 47 130 c 16
 44 136 40 141 40 146 c 0
EndSplineSet
Validated: 1
EndChar

StartChar: uniEE72
Encoding: 61042 61042 5
Width: 461
VWidth: 0
Flags: W
HStem: 21 21G<56 72.5> 103 50<278.04 419.989>
LayerCount: 2
Fore
SplineSet
97 288 m 26
 127 288 l 25
 127 288 134 282 134 276 c 3
 134 263 147 264 156 264 c 3
 177 264 173 272 191 272 c 1
 203 274 214 275 225 275 c 0
 234 275 243 274 252 272 c 9
 126 99 l 25
 126 92 126 87 126 80 c 0
 126 80 126 80 127 80 c 0
 132 80 170 98 199 111 c 1
 260 126 303 138 355 153 c 1
 370 153 403 153 412 153 c 2
 413 153 l 2
 419 154 421 147 421 139 c 2
 421 132 l 2
 421 127 421 121 420 115 c 0
 420 105 405 103 387 103 c 0
 375 103 363 103 353 103 c 0
 347 103 342 103 338 103 c 0
 287 92 183 70 132 55 c 0
 120 52 85 21 60 21 c 0
 52 21 40 22 40 36 c 0
 40 42 46 61 57 75 c 1
 95 137 117 172 146 223 c 1
 110 228 104 252 85 277 c 24
 81 282 91 288 97 288 c 26
EndSplineSet
Validated: 1
EndChar

StartChar: uniEE7A
Encoding: 61050 61050 6
Width: 198
VWidth: 0
Flags: W
HStem: 22 92<98.2969 140> 73 41<42.0698 88.6272>
VStem: 81 77<30.4389 61.5846>
LayerCount: 2
Fore
SplineSet
107 22 m 4xa0
 95 22 84 28 81 44 c 12
 79 53 87 53 96 62 c 4
 102 68 95 75 89 77 c 28
 81 80 76 70 68 73 c 28
 55 77 51 86 40 95 c 21
 40 96 l 4
 40 109 61 114 81 114 c 4x60
 121 114 155 90 158 59 c 5
 158 38 127 22 107 22 c 4xa0
EndSplineSet
Validated: 1
EndChar

StartChar: uniEE75
Encoding: 61045 61045 7
Width: 230
VWidth: 0
Flags: W
HStem: 22 56<104.209 175.126>
VStem: 40 63<61.6372 115.813>
LayerCount: 2
Fore
SplineSet
103 61 m 13
 129 67 142 78 170 78 c 4
 181 78 190 74 190 58 c 4
 190 44 131 22 92 22 c 4
 76 22 64 26 60 35 c 4
 52 57 43 81 40 106 c 5
 56 116 72 119 79 119 c 4
 98 119 94 96 103 61 c 13
EndSplineSet
Validated: 1
EndChar

StartChar: uniEE78
Encoding: 61048 61048 8
Width: 302
VWidth: 0
Flags: W
HStem: 22 239
VStem: 40 222
LayerCount: 2
Fore
SplineSet
40 239 m 0
 40 252 54 261 69 261 c 0
 73 261 77 260 81 256 c 0
 147 172 183 126 259 52 c 0
 261 49 262 46 262 43 c 0
 262 34 254 24 244 22 c 1
 218 23 217 29 205 41 c 1
 143 95 111 142 53 214 c 0
 46 222 40 228 40 239 c 0
EndSplineSet
Validated: 1
EndChar

StartChar: uniEE7C
Encoding: 61052 61052 9
Width: 355
VWidth: 0
Flags: W
HStem: 3 53<246.666 314.107> 21 92<98.2969 140> 72 41<43.1775 88.6264> 92 50<203.353 264.025>
VStem: 81 77<29.4389 60.5846> 201 65<95.8819 138.063> 245 70<5.22061 52.7394>
LayerCount: 2
Fore
SplineSet
315 29 m 4x8a
 315 9 295 3 279 3 c 4
 259 3 245 19 245 33 c 4
 245 46 257 56 278 56 c 4
 295 56 315 43 315 29 c 4x8a
227 142 m 4x1c
 246 142 266 127 266 112 c 4
 266 98 253 92 240 92 c 4
 220 92 201 108 201 123 c 4
 201 132 210 142 227 142 c 4x1c
107 21 m 4x48
 95 21 84 27 81 43 c 4
 79 52 87 52 95 61 c 4
 102 68 95 74 89 77 c 4
 81 80 75 69 67 72 c 4
 54 77 51 86 40 95 c 5
 40 96 l 4
 40 108 61 113 81 113 c 4x28
 121 113 155 89 158 58 c 5
 158 37 127 21 107 21 c 4x48
EndSplineSet
Validated: 1
EndChar

StartChar: uniEE80
Encoding: 61056 61056 10
Width: 283
VWidth: 0
Flags: W
HStem: 22 38<109.639 188.729>
VStem: 201 42<75.657 125.884>
LayerCount: 2
Fore
SplineSet
220 126 m 27
 233 126 243 116 243 101 c 0
 243 78 242 66 226 48 c 8
 207 27 186 22 157 22 c 19
 111 22 85 39 62 64 c 8
 49 78 40 91 40 106 c 0
 40 116 52 123 63 123 c 0
 67 123 71 122 74 120 c 8
 93 108 94 90 112 77 c 24
 126 66 136 60 154 60 c 27
 168 60 179 64 188 75 c 24
 199 89 191 104 201 119 c 24
 205 126 212 126 220 126 c 27
EndSplineSet
Validated: 1
EndChar

StartChar: uniEE84
Encoding: 61060 61060 11
Width: 418
VWidth: 0
Flags: W
HStem: 22 42<118.516 171.954> 45 43<222.286 273.85>
VStem: 115 57<22.8259 60.3872> 222 52<45.39 87.4378>
DStem2: 52 102 193 115 0.965824 0.259199<-4.28912 318.829>
LayerCount: 2
Fore
SplineSet
222 71 m 4x70
 222 84 233 88 244 88 c 4x70
 261 88 274 82 274 64 c 4xb0
 274 49 261 45 250 45 c 4
 233 45 222 53 222 71 c 4x70
172 44 m 4
 172 28 156 22 141 22 c 4
 135 22 122 22 115 33 c 5
 115 37 114 49 118 51 c 4
 129 57 141 64 153 64 c 4xb0
 162 64 172 58 172 44 c 4
362 184 m 4
 372 184 378 177 378 174 c 4
 378 170 375 166 370 162 c 5
 252 132 280 139 193 115 c 12
 145 101 104 89 57 78 c 4
 56 78 55 78 54 78 c 4
 47 78 40 83 40 90 c 4
 40 94 48 101 52 102 c 12
 105 120 162 135 188 143 c 4
 201 147 323 184 362 184 c 4
EndSplineSet
Validated: 1
EndChar

StartChar: uniEE7E
Encoding: 61054 61054 12
Width: 640
VWidth: 0
Flags: W
HStem: 22 21G<573 582.5> 79 92<101.297 143> 117 75<301.211 338.614> 130 41<46.1775 91.6264> 158 34<256.14 292.719>
VStem: 84 77<87.4389 118.585> 287 62<121.683 149.631>
LayerCount: 2
Fore
SplineSet
420 219 m 0x86
 418 222 417 225 417 228 c 0
 417 239 433 249 446 249 c 0
 452 249 457 247 461 241 c 0
 522 170 548 138 600 52 c 0
 602 49 603 46 603 43 c 0
 603 32 589 22 576 22 c 0
 570 22 563 24 559 30 c 0
 469 164 454 181 420 219 c 0x86
308 117 m 4xa6
 298 117 289 122 287 135 c 4
 285 142 292 142 299 150 c 4
 304 155 298 160 293 162 c 4
 287 164 282 156 276 158 c 4
 265 162 262 169 254 177 c 5
 254 178 l 4
 254 188 270 192 287 192 c 4x8e
 319 192 347 172 349 147 c 5
 349 130 324 117 308 117 c 4xa6
110 79 m 0xc6
 98 79 87 85 84 101 c 0
 82 110 90 110 98 119 c 0
 105 126 98 132 92 135 c 0
 84 138 78 127 70 130 c 0
 57 135 54 144 43 153 c 1
 43 154 l 0
 43 166 64 171 84 171 c 0x96
 124 171 158 147 161 116 c 1
 161 95 130 79 110 79 c 0xc6
EndSplineSet
Validated: 1
EndChar

StartChar: uniEE89
Encoding: 61065 61065 13
Width: 261
VWidth: 0
Flags: W
HStem: 21 21G<127 144.5> 42 26<41 77.5288> 63 50<155.484 213.768>
VStem: 90 53<99 150.312> 110 51<21.7503 56.945>
LayerCount: 2
Fore
SplineSet
195 113 m 0x30
 203 113 220 103 220 95 c 0
 220 76 155 63 155 63 c 1
 156 55 161 44 161 35 c 0
 161 23 151 21 138 21 c 0xa8
 116 21 121 43 110 57 c 25
 90 51 110 57 58 42 c 0
 50 40 40 48 40 57 c 0
 40 61 41 64 41 68 c 1x48
 60 78 73 78 93 86 c 1
 93 98 90 105 90 114 c 0
 90 131 98 151 118 151 c 0
 122 151 127 150 132 149 c 0
 143 146 137 119 143 99 c 1
 159 103 178 113 195 113 c 0x30
EndSplineSet
Validated: 1
EndChar

StartChar: uniEE8B
Encoding: 61067 61067 14
Width: 279
VWidth: 0
Flags: W
HStem: 22 31<129.005 157.816> 190 39<131.003 159>
VStem: 91 37<53.3692 115 155 188.738> 160 39<64.476 127>
DStem2: 91 147 91 115 0.985821 0.167799<-54.3474 -5.36958 39.7894 64.6657 102.6 131.844>
LayerCount: 2
Fore
SplineSet
238 155 m 0
 238 136 211 136 196 133 c 1
 197 120 199 106 199 93 c 0
 199 54 187 22 140 22 c 0
 124 22 109 23 102 35 c 0
 92 51 91 65 91 82 c 0
 91 86 91 91 91 95 c 0
 91 100 91 106 91 112 c 0
 91 113 91 114 91 115 c 1
 80 113 68 111 55 109 c 0
 47 107 40 111 40 122 c 0
 40 131 46 139 54 140 c 0
 67 143 80 145 91 147 c 1
 92 169 94 190 104 209 c 0
 112 225 132 229 152 229 c 0
 184 229 188 193 191 167 c 1
 200 168 210 172 221 172 c 0
 230 172 238 166 238 155 c 0
128 86 m 0
 128 83 128 79 128 76 c 0
 128 61 135 61 138 53 c 1
 147 53 157 58 158 64 c 0
 160 74 160 94 160 108 c 0
 160 116 160 121 160 127 c 1
 150 125 140 123 129 121 c 1
 129 111 128 99 128 86 c 0
160 161 m 1
 159 180 157 190 149 190 c 0
 135 188 131 180 131 172 c 0
 131 167 130 161 130 155 c 1
 140 157 150 159 160 161 c 1
EndSplineSet
Validated: 1
EndChar

StartChar: uniEE8D
Encoding: 61069 61069 15
Width: 205
VWidth: 0
Flags: W
HStem: -144 21G<103 118.5> 357 20G<92 100>
VStem: 40 64<160.685 208.822> 49 53<292.22 340.783> 86 50<-143.771 133.79>
LayerCount: 2
Fore
SplineSet
110 -144 m 0xc8
 96 -144 85 -139 85 -127 c 2
 86 22 l 0xc8
 86 40 87 50 87 69 c 0
 87 95 92 109 95 135 c 1
 69 137 40 147 40 173 c 0xe0
 40 208 83 212 103 257 c 1
 77 272 49 278 49 308 c 0
 49 341 84 359 100 377 c 1
 100 372 101 370 101 365 c 0
 101 359 110 357 110 351 c 0
 110 333 102 324 102 306 c 0xd0
 102 296 115 292 125 292 c 0
 142 292 165 291 165 274 c 0
 165 230 104 224 104 180 c 0xe0
 104 157 149 163 149 140 c 0
 149 112 136 98 136 71 c 2
 136 22 l 1
 135 -127 l 2
 135 -135 127 -144 110 -144 c 0xc8
EndSplineSet
Validated: 1
EndChar

StartChar: uniEE8F
Encoding: 61071 61071 16
Width: 291
VWidth: 0
Flags: W
HStem: 23 155
VStem: 42 208
DStem2: 46 129 66 97 0.92807 0.372406<-11.4383 149.428> 106 55 125 23 0.927846 0.372962<-12.4161 148.513>
LayerCount: 2
Fore
SplineSet
106 55 m 4
 167 79 175 83 228 104 c 4
 237 108 247 103 250 95 c 4
 254 86 253 75 244 71 c 4
 194 51 173 41 125 23 c 4
 116 19 105 25 101 34 c 4
 98 42 98 52 106 55 c 4
46 129 m 4
 108 153 116 157 169 178 c 4
 178 182 187 177 191 169 c 4
 195 160 193 149 184 145 c 4
 135 125 114 115 66 97 c 4
 56 93 46 99 42 108 c 4
 39 116 39 126 46 129 c 4
EndSplineSet
Validated: 1
EndChar

StartChar: uniEE93
Encoding: 61075 61075 17
Width: 525
VWidth: 0
Flags: W
HStem: 22 34<92.0974 159.703> 57 35<177.766 247.816> 102 34<40.4608 107.508> 137 35<125.487 196.819> 198 20G<323 332>
DStem2: 342 213 314 171 0.645198 -0.764016<-11.4404 233.184>
LayerCount: 2
Fore
SplineSet
301 196 m 0
 301 209 316 218 330 218 c 0
 334 218 339 217 342 213 c 0
 381 166 424 118 474 54 c 1
 481 45 484 39 485 28 c 0
 485 19 476 12 467 12 c 0
 449 12 442 23 430 35 c 1
 352 130 341 141 314 171 c 0
 307 179 301 185 301 196 c 0
98 56 m 0
 162 73 170 76 226 92 c 0
 227 92 229 92 230 92 c 0
 241 92 248 81 248 72 c 0
 248 65 245 59 237 57 c 0
 186 43 164 35 114 22 c 0
 113 22 111 22 110 22 c 0
 101 22 94 28 92 36 c 0
 90 44 90 54 98 56 c 0
59 102 m 0
 48 102 40 111 40 124 c 0
 40 130 42 135 48 136 c 0
 112 154 119 156 175 172 c 0
 177 172 178 172 180 172 c 0
 190 172 197 162 197 152 c 0
 197 145 194 139 187 137 c 0
 136 123 113 116 64 103 c 0
 62 102 61 102 59 102 c 0
EndSplineSet
Validated: 1
EndChar

StartChar: uniEE9A
Encoding: 61082 61082 18
Width: 836
VWidth: 0
Flags: W
HStem: 25 21G<126.5 131> 80 33<40.6325 87.8568 230.401 261.607>
DStem2: 47 113 66 81 0.932637 0.360815<0.304814 126.2> 117 58 137 26 0.929881 0.367861<0.0362091 138.26>
AnchorPoint: "Podchashie" 449 98 basechar 0
AnchorPoint: "Tonal" 447 282 basechar 0
LayerCount: 2
Fore
SplineSet
783 374 m 0
 792 374 795 370 796 360 c 0
 796 352 787 348 779 345 c 0
 605 271 483 215 329 155 c 9
 320 157 311 153 307 160 c 24
 303 170 306 181 315 185 c 0
 459 244 559 284 764 369 c 0
 768 372 777 374 783 374 c 0
117 58 m 0
 179 82 186 86 240 107 c 0
 242 108 244 108 246 108 c 0
 256 108 264 97 264 87 c 0
 264 82 261 77 255 74 c 0
 206 54 184 44 137 26 c 0
 134 25 132 25 130 25 c 0
 123 25 115 30 113 37 c 0
 110 45 109 55 117 58 c 0
60 80 m 0
 49 80 40 89 40 102 c 0
 40 107 42 111 47 113 c 0
 108 137 106 135 159 157 c 0
 161 158 163 158 165 158 c 0
 176 158 184 147 184 137 c 0
 184 131 181 126 175 124 c 0
 125 104 114 99 66 81 c 0
 64 80 62 80 60 80 c 0
EndSplineSet
Validated: 1
EndChar

StartChar: uniEE9D
Encoding: 61085 61085 19
Width: 982
VWidth: 0
Flags: W
HStem: 21 21G<120.5 125.5> 84 55<535.682 594.505> 115 53<692.157 738.536> 282 29<881.32 941.897>
VStem: 533 63<87.6521 136.554> 691 48<115.517 167.101>
DStem2: 47 115 64 82 0.959732 0.280917<2.01127 126.151> 113 55 130 22 0.954615 0.297841<1.37423 136.923>
LayerCount: 2
Fore
SplineSet
691 144 m 0xbc
 691 158 708 168 719 168 c 0
 736 168 739 152 739 138 c 0
 739 125 729 115 717 115 c 0
 703 115 691 130 691 144 c 0xbc
533 117 m 0
 533 132 547 139 560 139 c 0
 579 139 596 127 596 108 c 0
 596 93 585 84 571 84 c 0xdc
 552 84 533 99 533 117 c 0
928 311 m 0
 938 311 942 307 942 298 c 0
 942 288 933 286 924 282 c 0
 744 224 535 167 378 123 c 9
 369 126 359 122 356 130 c 24
 353 140 357 151 366 154 c 0
 536 206 688 244 910 308 c 0
 914 310 922 311 928 311 c 0
113 55 m 0
 176 74 184 77 239 94 c 0
 241 95 243 95 244 95 c 0
 255 95 262 84 262 74 c 0
 262 68 259 62 252 60 c 0
 201 44 179 36 130 22 c 0
 128 21 126 21 125 21 c 0
 116 21 109 27 107 35 c 0
 105 43 105 53 113 55 c 0
64 82 m 0
 62 81 60 81 59 81 c 0
 48 81 40 91 40 103 c 0
 40 109 42 114 47 115 c 0xbc
 111 134 108 133 163 150 c 0
 165 151 166 151 168 151 c 0
 178 151 186 140 186 130 c 0
 186 124 183 118 176 116 c 0
 125 100 113 96 64 82 c 0
EndSplineSet
Validated: 1
EndChar

StartChar: uniEE9E
Encoding: 61086 61086 20
Width: 892
VWidth: 0
Flags: W
HStem: 21 76<88.2108 125.821> 47 76<236.211 273.821> 63 34<41.6206 79.7195> 89 34<189.621 227.719>
VStem: 74 63<26.0625 53.6308> 222 63<52.0625 79.6308>
DStem2: 384 145 396 119 0.981386 0.192046<-12.5562 456.573>
LayerCount: 2
Fore
SplineSet
830 244 m 4x0c
 839 244 852 239 852 228 c 4
 852 219 841 213 831 211 c 4
 662 178 560 156 396 119 c 13
 388 121 379 117 375 125 c 4
 371 132 376 143 384 145 c 28
 553 190 621 199 821 243 c 4
 824 244 827 244 830 244 c 4x0c
243 47 m 0x4c
 233 47 224 52 222 65 c 8
 220 72 226 72 234 80 c 0
 239 85 233 91 228 93 c 24
 222 95 217 86 211 89 c 24
 200 93 197 100 188 107 c 17
 188 108 l 0
 188 119 205 123 222 123 c 0x1c
 254 123 282 103 285 78 c 1
 285 60 259 47 243 47 c 0x4c
95 21 m 0x8c
 85 21 76 26 74 39 c 8
 72 46 78 46 86 54 c 0
 91 59 85 65 80 67 c 24
 74 69 69 60 63 63 c 24
 52 67 49 74 40 81 c 17
 40 82 l 0
 40 93 57 97 74 97 c 0x2c
 106 97 134 77 137 52 c 1
 137 34 111 21 95 21 c 0x8c
EndSplineSet
Validated: 1
EndChar

StartChar: uniEE9F
Encoding: 61087 61087 21
Width: 892
VWidth: 0
Flags: W
HStem: 20 76<88.2108 125.821> 46 76<236.211 273.821> 56 55<528.886 587.57> 62 34<41.6206 79.7195> 87 54<685.402 731.429> 88 34<189.621 227.719>
VStem: 74 63<25.0625 52.6308> 222 63<51.0625 78.6308> 526 63<59.838 108.572> 684 48<87.5507 140.047>
DStem2: 384 144 396 118 0.981386 0.192046<-12.5562 456.573>
LayerCount: 2
Fore
SplineSet
684 117 m 4x0bc0
 684 131 701 141 712 141 c 4
 729 141 732 124 732 110 c 4
 732 98 722 87 710 87 c 4
 696 87 684 103 684 117 c 4x0bc0
526 89 m 4
 526 105 540 111 553 111 c 4
 572 111 589 99 589 81 c 4
 589 65 578 56 564 56 c 4x23c0
 545 56 526 72 526 89 c 4
830 243 m 0
 839 243 852 238 852 227 c 0
 852 218 841 212 831 210 c 0
 662 177 560 155 396 118 c 9
 388 120 379 116 375 124 c 0
 371 131 376 142 384 144 c 24
 553 189 621 198 821 242 c 0
 824 243 827 243 830 243 c 0
243 46 m 0x43c0
 233 46 224 51 222 64 c 8
 220 71 226 71 234 79 c 0
 239 84 233 90 228 92 c 24
 222 94 217 85 211 88 c 24
 200 92 197 99 188 106 c 17
 188 107 l 0
 188 118 205 122 222 122 c 0x07c0
 254 122 282 102 285 77 c 1
 285 59 259 46 243 46 c 0x43c0
95 20 m 0x83c0
 85 20 76 25 74 38 c 8
 72 45 78 45 86 53 c 0
 91 58 85 64 80 66 c 24
 74 68 69 59 63 62 c 24
 52 66 49 73 40 80 c 17
 40 81 l 0
 40 92 57 96 74 96 c 0x13c0
 106 96 134 76 137 51 c 1
 137 33 111 20 95 20 c 0x83c0
EndSplineSet
Validated: 1
EndChar

StartChar: uniEEA6
Encoding: 61094 61094 22
Width: 744
VWidth: 0
Flags: W
HStem: 21 76<88.2108 125.821> 63 34<41.6206 79.7195>
VStem: 74 63<26.0625 53.6308>
DStem2: 236 119 248 93 0.981386 0.192046<-12.5562 456.573>
LayerCount: 2
Fore
SplineSet
682 218 m 0x20
 691 218 704 213 704 202 c 0
 704 193 693 187 683 185 c 0
 514 152 412 130 248 93 c 9
 240 95 231 91 227 99 c 0
 223 106 228 117 236 119 c 24
 405 164 473 173 673 217 c 0
 676 218 679 218 682 218 c 0x20
95 21 m 0xa0
 85 21 76 26 74 39 c 8
 72 46 78 46 86 54 c 0
 91 59 85 65 80 67 c 24
 74 69 69 60 63 63 c 24
 52 67 49 74 40 81 c 17
 40 82 l 0
 40 93 57 97 74 97 c 0x60
 106 97 134 77 137 52 c 1
 137 34 111 21 95 21 c 0xa0
EndSplineSet
Validated: 1
EndChar

StartChar: uniEEB0
Encoding: 61104 61104 23
Width: 894
VWidth: 0
Flags: W
HStem: 21 21G<118.5 123.5> 124 35<117.797 185.637> 253 34<770.295 853.848>
DStem2: 111 55 128 22 0.947001 0.32123<0.487297 132.171 265.729 754.061>
AnchorPoint: "Podchashie" 444 50 basechar 0
AnchorPoint: "Tonal" 515.252 257.618 basechar 0
LayerCount: 2
Fore
SplineSet
281 181 m 5
 292 184 304 186 314 186 c 4
 329 186 343 182 351 169 c 4
 356 160 357 156 361 148 c 29
 792 286 l 18
 795 286 820 287 829 287 c 0
 843 287 855 285 854 271 c 1
 855 255 846 253 834 253 c 0
 829 253 826 253 823 253 c 0
 817 253 813 253 800 250 c 0
 686 214 584 184 380 113 c 12
 371 110 366 107 356 107 c 31
 315 107 289 173 281 181 c 5
111 55 m 0
 174 74 182 77 237 95 c 0
 239 95 241 95 242 95 c 0
 253 95 260 84 260 75 c 0
 260 68 257 63 250 60 c 0
 199 45 177 37 128 22 c 0
 126 21 124 21 123 21 c 0
 114 21 107 27 105 35 c 0
 103 43 103 53 111 55 c 0
64 90 m 0
 62 90 60 89 59 89 c 0
 48 89 40 100 40 111 c 0
 40 117 42 122 47 124 c 0
 111 143 108 141 163 159 c 0
 165 159 166 159 168 159 c 0
 178 159 186 148 186 138 c 0
 186 132 183 127 176 124 c 0
 125 109 113 105 64 90 c 0
EndSplineSet
Validated: 1
EndChar

StartChar: uniEEB5
Encoding: 61109 61109 24
Width: 1000
VWidth: 0
Flags: W
HStem: 21 300
DStem2: 399 164 418 129 0.957868 0.28721<-2.74824 561.067>
AnchorPoint: "Podchashie" 506 98 basechar 0
AnchorPoint: "Tonal" 577.252 305.618 basechar 0
LayerCount: 2
Fore
SplineSet
170 170 m 0
 171 181 186 183 195 181 c 0
 205 180 209 176 214 169 c 0
 220 159 277 91 277 60 c 0
 277 49 272 45 265 45 c 0
 256 45 244 52 239 57 c 8
 209 91 198 114 175 154 c 16
 172 159 169 164 170 170 c 0
154 35 m 0
 154 26 147 21 138 21 c 0
 128 21 120 26 113 34 c 8
 81 69 69 94 46 135 c 16
 43 140 40 145 40 150 c 0
 40 161 54 164 62 164 c 0
 77 163 81 159 88 150 c 16
 95 139 154 67 154 35 c 0
317 201 m 1
 328 204 339 207 349 207 c 0
 364 207 381 198 389 185 c 0
 394 176 395 172 399 164 c 25
 599 223 742 269 913 316 c 0
 923 320 931 321 938 321 c 0
 954 321 960 311 959 301 c 1
 959 286 851 255 834 251 c 1
 719 215 630 193 418 129 c 0
 409 126 404 123 394 123 c 27
 351 123 325 193 317 201 c 1
EndSplineSet
Validated: 1
EndChar

StartChar: uniEEBD
Encoding: 61117 61117 25
Width: 662
VWidth: 0
Flags: W
HStem: 22 59<55.8321 97.6875> 145 56<583.35 620.486> 145 23<577.021 583.042>
VStem: 570 52<147.61 167.903>
DStem2: 108 51 109 24 0.952526 0.304457<-7.92582 489.795>
LayerCount: 2
Fore
SplineSet
41 67 m 4xb0
 41 73 59 81 69 81 c 4
 87 81 92 60 108 51 c 5
 299 112 89 45 571 199 c 4
 576 200 582 201 589 201 c 4
 601 201 622 193 622 169 c 4
 622 157 604 145 584 145 c 4xd0
 577 145 572 147 570 155 c 5
 567 160 568 166 575 168 c 12
 579 169 584 170 583 174 c 20
 581 179 576 178 570 176 c 4
 387 116 193 50 109 24 c 4
 105 23 101 22 97 22 c 4
 90 22 84 25 77 29 c 12
 63 38 41 51 41 67 c 4xb0
EndSplineSet
Validated: 1
EndChar

StartChar: uniEEBF
Encoding: 61119 61119 26
Width: 364
VWidth: 0
Flags: W
HStem: 22 36<246.384 276> 129 28<58.3784 230.739>
VStem: 276 48<58 101.841>
LayerCount: 2
Fore
SplineSet
140 157 m 0
 222 157 324 124 324 48 c 0
 324 32 316 24 287 22 c 1
 254 22 237 55 219 57 c 1
 220 63 216 76 233 76 c 0
 259 76 261 58 275 58 c 1
 276 62 276 65 276 69 c 0
 276 114 203 129 169 129 c 0
 130 129 104 115 62 115 c 19
 52 115 40 115 40 129 c 0
 40 149 102 157 140 157 c 0
EndSplineSet
Validated: 1
EndChar

StartChar: uniEE50
Encoding: 61008 61008 27
Width: 0
VWidth: 0
GlyphClass: 4
Flags: W
HStem: 222 58<-98.3066 -37.3268>
VStem: -100 64<224.328 275.953>
AnchorPoint: "Tonal" -64.9814 220.049 mark 0
LayerCount: 2
Fore
SplineSet
-76 280 m 0
 -55 280 -36 264 -36 253 c 0
 -36 236 -48 222 -65 222 c 27
 -84 222 -100 235 -100 254 c 19
 -100 268 -92 280 -76 280 c 0
EndSplineSet
Validated: 1
EndChar

StartChar: uniEE51
Encoding: 61009 61009 28
Width: 0
VWidth: 0
GlyphClass: 4
Flags: W
HStem: 184 58<-213.102 -152.327> 224 58<-103.102 -42.3268>
VStem: -215 64<186.469 238.152> -105 64<226.469 278.152>
AnchorPoint: "Tonal" -179.964 181.049 mark 0
LayerCount: 2
Fore
SplineSet
-81 282 m 0x70
 -60 282 -41 267 -41 255 c 0
 -41 238 -53 224 -70 224 c 27
 -89 224 -105 238 -105 256 c 19
 -105 270 -97 282 -81 282 c 0x70
-191 242 m 0xb0
 -170 242 -151 227 -151 215 c 0
 -151 198 -163 184 -180 184 c 27
 -199 184 -215 198 -215 216 c 19
 -215 230 -207 242 -191 242 c 0xb0
EndSplineSet
Validated: 1
EndChar

StartChar: uniEE52
Encoding: 61010 61010 29
Width: 0
VWidth: 0
Flags: W
HStem: 184 58<-310.097 -249.331> 224 58<-200.097 -139.331> 268 58<-101.097 -40.3306>
VStem: -312 64<186.469 238.152> -202 64<226.469 278.152> -103 64<270.469 321.815>
AnchorPoint: "Tonal" -278.473 182.049 mark 0
LayerCount: 2
Fore
SplineSet
-80 326 m 0x3c
 -58 326 -39 310 -39 299 c 0
 -39 282 -52 268 -68 268 c 27
 -87 268 -103 282 -103 300 c 19
 -103 314 -96 326 -80 326 c 0x3c
-179 282 m 0x5c
 -157 282 -138 267 -138 255 c 0
 -138 238 -151 224 -167 224 c 27
 -186 224 -202 238 -202 256 c 19
 -202 270 -195 282 -179 282 c 0x5c
-289 242 m 0x9c
 -267 242 -248 227 -248 215 c 0
 -248 198 -261 184 -277 184 c 27
 -296 184 -312 198 -312 216 c 19
 -312 230 -305 242 -289 242 c 0x9c
EndSplineSet
Validated: 1
EndChar

StartChar: uniEE58
Encoding: 61016 61016 30
Width: 0
VWidth: 0
Flags: W
HStem: 231 86
VStem: -198 158
AnchorPoint: "Tonal" -103.982 242.049 mark 0
LayerCount: 2
Fore
SplineSet
-103 273 m 0
 -142 273 -146 231 -167 231 c 0
 -183 231 -198 251 -198 264 c 1
 -148 314 -121 314 -86 317 c 1
 -67 315 -40 320 -40 294 c 0
 -40 280 -47 267 -62 267 c 0
 -77 267 -87 273 -103 273 c 0
EndSplineSet
Validated: 1
EndChar

StartChar: uniEE76
Encoding: 61046 61046 31
Width: 356
VWidth: 0
Flags: W
HStem: 22 55<104.209 175.126> 117 58<147.898 208.673> 167 58<253.898 314.673>
VStem: 40 63<60.1016 115.245> 146 64<119.469 171.152> 252 64<169.469 221.152>
LayerCount: 2
Fore
SplineSet
276 225 m 0xbc
 297 225 316 210 316 198 c 0
 316 181 304 167 287 167 c 27
 268 167 252 181 252 199 c 19
 252 213 260 225 276 225 c 0xbc
170 175 m 0xdc
 191 175 210 160 210 148 c 0
 210 131 198 117 181 117 c 27
 162 117 146 131 146 149 c 19
 146 163 154 175 170 175 c 0xdc
103 60 m 9
 129 67 142 77 170 77 c 0
 181 77 190 74 190 58 c 0
 190 44 131 22 92 22 c 0
 76 22 63 26 60 35 c 0
 52 56 43 81 40 106 c 1
 56 116 71 118 79 118 c 0
 97 118 94 95 103 60 c 9
EndSplineSet
Validated: 1
LCarets2: 1 0 
Ligature2: "'ccmp' Znamenny Ligatures 0-1" uniEE75 uniEE51
EndChar

StartChar: uniEE79
Encoding: 61049 61049 32
Width: 332
VWidth: 0
Flags: W
HStem: 22 21G<231 249> 124 53<223.268 291.234> 207 47<167.069 231.513>
VStem: 166 66<209.714 251.461> 222 70<126.72 175.078>
LayerCount: 2
Fore
SplineSet
257 177 m 0xe8
 275 177 292 167 292 151 c 0
 292 134 272 124 255 124 c 0
 237 124 222 138 222 153 c 0
 222 166 236 177 257 177 c 0xe8
166 235 m 0xf0
 166 245 178 254 195 254 c 0
 213 254 232 244 232 228 c 0
 232 215 218 207 202 207 c 0
 185 207 166 219 166 235 c 0xf0
40 239 m 0
 40 252 54 261 69 261 c 0
 73 261 77 260 81 256 c 0
 147 172 183 126 259 52 c 0
 261 49 262 46 262 43 c 0
 262 34 254 24 244 22 c 1
 218 23 217 29 205 41 c 1
 143 95 111 142 53 214 c 0
 46 222 40 228 40 239 c 0
EndSplineSet
Validated: 1
EndChar

StartChar: uniEE7D
Encoding: 61053 61053 33
Width: 306
VWidth: 0
Flags: W
HStem: 21 92<98.2969 140> 72 41<43.1775 88.6264> 92 50<203.353 264.025>
VStem: 81 77<29.4389 60.5846> 201 65<95.8819 138.063>
LayerCount: 2
Fore
SplineSet
227 142 m 0x38
 246 142 266 127 266 112 c 0
 266 98 253 92 240 92 c 0
 220 92 201 108 201 123 c 0
 201 132 210 142 227 142 c 0x38
107 21 m 0x98
 95 21 84 27 81 43 c 0
 79 52 87 52 95 61 c 0
 102 68 95 74 89 77 c 0
 81 80 75 69 67 72 c 0
 54 77 51 86 40 95 c 1
 40 96 l 0
 40 108 61 113 81 113 c 0x58
 121 113 155 89 158 58 c 1
 158 37 127 21 107 21 c 0x98
EndSplineSet
Validated: 1
EndChar

StartChar: uniEE7F
Encoding: 61055 61055 34
Width: 695
VWidth: 0
Flags: W
HStem: 20 92<98.2969 140> 58 75<298.211 335.614> 71 41<43.1775 88.6264> 80 38<521.639 600.73> 99 34<253.14 289.719>
VStem: 81 77<28.4389 59.5846> 284 62<62.6832 90.6308> 613 42<133.657 183.895>
LayerCount: 2
Fore
SplineSet
632 184 m 27x0f
 645 184 655 175 655 159 c 0
 655 136 655 124 638 106 c 8
 619 85 598 80 569 80 c 19
 523 80 497 97 474 122 c 8
 462 136 452 150 452 164 c 0
 452 174 464 181 475 181 c 0
 479 181 483 180 486 178 c 8
 505 166 506 149 524 135 c 24
 538 125 549 118 566 118 c 27x17
 581 118 591 122 600 133 c 24
 611 147 604 162 613 177 c 24
 617 184 624 184 632 184 c 27x0f
305 58 m 0x47
 295 58 286 63 284 76 c 0
 282 83 289 83 296 91 c 0
 301 96 295 101 290 103 c 0
 284 105 279 97 273 99 c 0x0f
 262 103 259 110 251 118 c 1x17
 251 119 l 0
 251 129 267 133 284 133 c 0x0f
 316 133 344 113 346 88 c 1
 346 71 321 58 305 58 c 0x47
107 20 m 0x87
 95 20 84 26 81 42 c 0
 79 51 87 51 95 60 c 0
 102 67 95 73 89 76 c 0
 81 79 75 68 67 71 c 0
 54 76 51 85 40 94 c 1
 40 95 l 0
 40 107 61 112 81 112 c 0x27
 121 112 155 88 158 57 c 1
 158 36 127 20 107 20 c 0x87
EndSplineSet
Validated: 1
EndChar

StartChar: uniEE83
Encoding: 61059 61059 35
Width: 418
VWidth: 0
Flags: W
HStem: 22 43<184.31 235.861>
VStem: 184 52<22.4802 64.5377>
DStem2: 52 84 193 97 0.965824 0.259199<-4.28912 318.829>
LayerCount: 2
Fore
SplineSet
184 48 m 0
 184 61 195 65 207 65 c 0
 224 65 236 59 236 41 c 0
 236 26 224 22 212 22 c 0
 196 22 184 30 184 48 c 0
362 166 m 0
 372 166 378 159 378 156 c 0
 378 152 375 148 370 144 c 1
 252 114 280 121 193 97 c 8
 145 83 104 71 57 60 c 0
 56 60 55 60 54 60 c 0
 47 60 40 65 40 72 c 0
 40 76 48 83 52 84 c 8
 105 102 162 117 188 125 c 0
 201 129 323 166 362 166 c 0
EndSplineSet
Validated: 1
EndChar

StartChar: uniEE85
Encoding: 61061 61061 36
Width: 418
VWidth: 0
Flags: W
HStem: 22 42<103.516 156.954> 45 43<207.286 258.85> 72 42<302.471 354.956>
VStem: 100 57<22.8259 60.3872> 207 52<45.39 87.4378> 298 57<72.7762 109.781>
DStem2: 52 104 193 117 0.965824 0.259199<-4.28912 318.829>
LayerCount: 2
Fore
SplineSet
355 94 m 0x3c
 355 78 340 72 324 72 c 0
 318 72 305 72 298 83 c 1
 298 86 297 98 302 101 c 0
 312 106 325 114 336 114 c 0
 346 114 355 107 355 94 c 0x3c
207 71 m 0
 207 84 218 88 229 88 c 0x5c
 246 88 259 82 259 64 c 0x9c
 259 49 246 45 235 45 c 0x5c
 218 45 207 53 207 71 c 0
157 44 m 0
 157 28 141 22 126 22 c 0
 120 22 107 22 100 33 c 1
 100 37 99 49 103 51 c 0
 114 57 126 64 138 64 c 0x9c
 147 64 157 58 157 44 c 0
362 186 m 0
 372 186 378 179 378 176 c 0
 378 172 375 168 370 164 c 1
 252 134 280 141 193 117 c 8
 145 103 104 91 57 80 c 0
 56 80 55 80 54 80 c 0
 47 80 40 85 40 92 c 0
 40 96 48 103 52 104 c 8
 105 122 162 137 188 145 c 0
 201 149 323 186 362 186 c 0
EndSplineSet
Validated: 1
EndChar

StartChar: uniEE88
Encoding: 61064 61064 37
Width: 406
VWidth: 0
Flags: W
HStem: 22 21G<139.5 148.5> 55 92<306.297 348> 106 41<250.07 296.627>
VStem: 289 77<63.0078 94.5846>
LayerCount: 2
Fore
SplineSet
315 55 m 0xd0
 303 55 292 61 289 77 c 8
 287 86 295 86 304 95 c 0
 310 101 303 108 297 110 c 24
 289 113 284 103 276 106 c 24
 263 110 259 119 248 128 c 17
 248 129 l 0
 248 142 269 147 289 147 c 0xb0
 329 147 363 123 366 92 c 1
 366 70 335 55 315 55 c 0xd0
133 149 m 0
 133 160 147 163 157 163 c 0
 166 163 171 160 177 153 c 0
 185 145 254 80 254 50 c 0
 254 40 248 37 241 37 c 0
 232 37 222 41 217 46 c 8
 183 75 168 97 141 133 c 16
 137 138 133 143 133 149 c 0
40 146 m 0
 40 156 53 160 61 160 c 0
 76 160 81 157 88 148 c 16
 96 137 161 67 161 36 c 0
 161 27 153 22 144 22 c 0
 135 22 127 27 120 34 c 8
 86 67 73 91 47 130 c 16
 44 136 40 141 40 146 c 0
EndSplineSet
Validated: 1
EndChar

StartChar: uniEE8E
Encoding: 61070 61070 38
Width: 454
VWidth: 0
Flags: W
HStem: -145 21G<352 367.5> 356 20G<341 349.5>
VStem: 289 64<159.685 207.822> 299 52<291.23 340.39> 335 50<-144.771 132.79>
DStem2: 46 129 66 97 0.92807 0.372406<-11.4383 149.428> 106 55 125 23 0.927846 0.372962<-12.4161 148.513>
LayerCount: 2
Fore
SplineSet
359 -145 m 0xc8
 345 -145 335 -140 335 -128 c 2
 335 21 l 0xc8
 336 39 336 49 336 68 c 0
 336 94 341 108 344 134 c 1
 319 136 289 146 289 172 c 0xe0
 289 207 332 211 352 256 c 1
 326 271 299 277 299 307 c 0
 299 340 333 358 349 376 c 1
 350 371 351 369 351 364 c 0
 351 358 359 356 359 350 c 0
 359 332 351 323 351 305 c 0xd0
 351 295 364 291 375 291 c 0
 391 291 414 290 414 273 c 0
 414 229 353 223 353 179 c 0xe0
 353 156 398 162 398 139 c 0
 398 111 385 97 385 70 c 2
 385 21 l 1
 385 -128 l 2
 385 -136 376 -145 359 -145 c 0xc8
106 55 m 0
 167 79 175 83 228 104 c 0
 237 108 247 103 250 95 c 0
 254 86 253 75 244 71 c 0
 194 51 173 41 125 23 c 0
 116 19 105 25 101 34 c 0
 98 42 98 52 106 55 c 0
46 129 m 0
 108 153 116 157 169 178 c 0
 178 182 187 177 191 169 c 0
 195 160 193 149 184 145 c 0
 135 125 114 115 66 97 c 0
 56 93 46 99 42 108 c 0
 39 116 39 126 46 129 c 0
EndSplineSet
Validated: 1
EndChar

StartChar: uniEE82
Encoding: 61058 61058 39
Width: 418
VWidth: 0
Flags: W
HStem: 22 49<177.128 205.864>
VStem: 219 20<58.1882 76.6988>
DStem2: 52 86 193 99 0.965824 0.259199<-4.28912 318.829>
LayerCount: 2
Fore
SplineSet
177 46 m 0
 177 59 184 71 196 71 c 0
 206 71 203 67 206 58 c 0
 208 53 214 55 217 58 c 24
 220 62 216 67 219 71 c 24
 225 77 231 77 239 81 c 17
 247 78 244 65 239 53 c 0
 231 34 214 22 198 22 c 0
 184 22 177 33 177 46 c 0
362 168 m 0
 372 168 378 161 378 158 c 0
 378 154 375 150 370 146 c 1
 252 116 280 123 193 99 c 8
 145 85 104 73 57 62 c 0
 56 62 55 62 54 62 c 0
 47 62 40 67 40 74 c 0
 40 78 48 85 52 86 c 8
 105 104 162 119 188 127 c 0
 201 131 323 168 362 168 c 0
EndSplineSet
Validated: 1
EndChar

StartChar: uniEE90
Encoding: 61072 61072 40
Width: 434
VWidth: 0
Flags: W
HStem: 48 92<333.297 375> 99 41<278.177 323.627>
VStem: 316 77<56.4389 87.5846>
DStem2: 46 129 66 97 0.929151 0.369701<-11.4704 149.427> 105 55 125 23 0.92807 0.372406<-11.4383 149.428>
LayerCount: 2
Fore
SplineSet
342 48 m 0xa0
 330 48 319 54 316 70 c 8
 314 79 322 79 331 88 c 0
 337 95 330 101 324 104 c 24
 316 107 311 96 303 99 c 24
 290 104 286 113 275 122 c 17
 275 123 l 0
 275 136 296 140 316 140 c 0x60
 356 140 390 116 393 85 c 1
 393 64 362 48 342 48 c 0xa0
105 55 m 0
 167 79 175 83 228 104 c 0
 237 108 246 103 250 95 c 0
 254 86 252 75 243 71 c 0
 194 51 173 41 125 23 c 0
 115 19 105 25 101 34 c 0
 98 42 98 52 105 55 c 0
46 129 m 0
 108 153 115 157 169 178 c 0
 178 182 187 177 191 169 c 0
 195 160 193 149 184 145 c 0
 135 125 113 115 66 97 c 0
 56 93 45 99 42 108 c 0
 39 116 38 126 46 129 c 0
EndSplineSet
Validated: 1
EndChar

StartChar: uniEE91
Encoding: 61073 61073 41
Width: 499
VWidth: 0
Flags: W
HStem: 90 26<279 315.529> 111 50<393.092 453.821>
VStem: 329 52<147 198.492>
DStem2: 46 129 66 97 0.92807 0.372406<-11.4383 149.428> 106 55 125 23 0.927846 0.372962<-12.4161 148.513>
LayerCount: 2
Fore
SplineSet
433 161 m 0x60
 442 161 459 150 459 142 c 0
 459 123 393 111 393 111 c 1x60
 394 103 399 91 399 82 c 0
 399 71 389 69 376 69 c 0
 354 69 359 91 348 105 c 25
 328 99 348 105 296 90 c 0
 289 87 278 95 278 105 c 0
 278 108 279 111 279 116 c 1xa0
 299 126 312 126 331 134 c 1
 332 146 329 152 329 162 c 0
 329 179 336 199 356 199 c 0
 360 199 365 198 370 197 c 0
 381 193 375 166 381 147 c 1
 398 151 416 161 433 161 c 0x60
106 55 m 0
 167 79 175 83 228 104 c 0
 237 108 247 103 250 95 c 0
 254 86 253 75 244 71 c 0
 194 51 173 41 125 23 c 0
 116 19 105 25 101 34 c 0
 98 42 98 52 106 55 c 0
46 129 m 0
 108 153 116 157 169 178 c 0
 178 182 187 177 191 169 c 0
 195 160 193 149 184 145 c 0
 135 125 114 115 66 97 c 0
 56 93 46 99 42 108 c 0
 39 116 39 126 46 129 c 0
EndSplineSet
Validated: 1
EndChar

StartChar: uniEE92
Encoding: 61074 61074 42
Width: 633
VWidth: 0
Flags: W
HStem: 48 92<333.297 375> 73 26<412.177 448.529> 99 41<278.177 323.627 526.218 589.164>
VStem: 316 77<56.4389 87.5846> 462 52<130 182.491> 481 45<66.4233 88>
DStem2: 46 129 66 97 0.929151 0.369701<-11.4704 149.427> 105 55 125 23 0.92807 0.372406<-11.4383 149.428>
LayerCount: 2
Fore
SplineSet
566 144 m 4x38
 575 144 592 134 592 126 c 4
 592 107 526 94 526 94 c 5
 528 86 533 75 533 66 c 4
 533 54 522 52 510 52 c 4
 488 52 492 74 481 88 c 29
 461 82 481 88 429 73 c 4x54
 422 71 412 79 412 88 c 4
 412 92 413 95 412 99 c 5
 432 109 445 109 464 117 c 5
 465 129 462 136 462 145 c 4
 462 163 469 183 489 183 c 4
 494 183 498 182 503 180 c 4
 515 177 509 150 514 130 c 5
 531 135 550 144 566 144 c 4x38
342 48 m 0x90
 330 48 319 54 316 70 c 8
 314 79 322 79 331 88 c 0
 337 95 330 101 324 104 c 24
 316 107 311 96 303 99 c 24
 290 104 286 113 275 122 c 17
 275 123 l 0
 275 136 296 140 316 140 c 0x30
 356 140 390 116 393 85 c 1
 393 64 362 48 342 48 c 0x90
105 55 m 0
 167 79 175 83 228 104 c 0
 237 108 246 103 250 95 c 0
 254 86 252 75 243 71 c 0
 194 51 173 41 125 23 c 0
 115 19 105 25 101 34 c 0
 98 42 98 52 105 55 c 0
46 129 m 0
 108 153 115 157 169 178 c 0
 178 182 187 177 191 169 c 0
 195 160 193 149 184 145 c 0
 135 125 113 115 66 97 c 0
 56 93 45 99 42 108 c 0
 39 116 38 126 46 129 c 0
EndSplineSet
Validated: 1
EndChar

StartChar: uniEE94
Encoding: 61076 61076 43
Width: 618
VWidth: 0
Flags: W
HStem: 22 34<91.1435 159.261> 57 35<176.462 247.765> 73 92<518.297 559.528> 102 34<40.4607 106.952> 123 42<462.458 508.626> 137 35<125.149 196.816> 198 20G<322.5 332>
VStem: 501 77<81.0078 112.539>
DStem2: 342 213 314 171 0.642488 -0.766296<-11.4203 232.604>
LayerCount: 2
Fore
SplineSet
527 73 m 0xa3
 515 73 504 79 501 95 c 8
 499 104 507 103 516 113 c 0
 522 119 515 126 509 128 c 24
 501 131 495 120 488 123 c 24
 475 128 471 137 460 146 c 17
 460 147 l 0
 460 160 481 165 501 165 c 0x8b
 541 165 575 140 578 110 c 1
 578 88 547 73 527 73 c 0xa3
301 196 m 0
 301 209 315 218 330 218 c 0
 334 218 338 217 342 213 c 0
 381 166 423 118 473 54 c 1
 481 45 484 39 484 28 c 0
 484 19 476 12 466 12 c 0
 448 12 441 23 429 35 c 1
 352 130 341 141 314 171 c 0
 307 179 301 185 301 196 c 0
98 56 m 0
 162 73 170 76 226 92 c 0
 227 92 229 92 230 92 c 0
 240 92 248 81 248 72 c 0
 248 65 244 59 237 57 c 0xc3
 186 43 163 35 114 22 c 0
 113 22 111 22 109 22 c 0
 101 22 94 28 91 36 c 0
 89 44 90 54 98 56 c 0
59 102 m 0x97
 48 102 40 111 40 124 c 0
 40 130 42 135 47 136 c 0
 111 154 119 156 175 172 c 0
 176 172 178 172 179 172 c 0
 190 172 197 162 197 152 c 0
 197 145 194 139 186 137 c 0
 135 123 113 116 63 103 c 0
 62 102 60 102 59 102 c 0x97
EndSplineSet
Validated: 1
EndChar

StartChar: uniEE96
Encoding: 61078 61078 44
Width: 550
VWidth: 0
Flags: W
HStem: 48 92<333.297 375> 64 92<449.297 491> 99 41<278.177 323.627> 115 41<394.774 439.627>
VStem: 316 77<56.4389 87.5846> 432 77<72.4389 103.585>
DStem2: 46 129 66 97 0.929151 0.369701<-11.4704 149.427> 105 55 125 23 0.92807 0.372406<-11.4383 149.428>
LayerCount: 2
Fore
SplineSet
458 64 m 0x4c
 446 64 435 70 432 86 c 8
 431 95 438 95 447 104 c 0
 453 111 446 117 440 120 c 24
 432 123 427 112 419 115 c 24x1c
 406 120 402 129 392 138 c 17
 392 139 392 139 392 140 c 0x2c
 392 152 413 156 432 156 c 0x1c
 472 156 506 132 509 101 c 1
 509 80 478 64 458 64 c 0x4c
342 48 m 0x8c
 330 48 319 54 316 70 c 8
 314 79 322 79 331 88 c 0
 337 95 330 101 324 104 c 24
 316 107 311 96 303 99 c 24
 290 104 286 113 275 122 c 17
 275 123 l 0
 275 136 296 140 316 140 c 0x2c
 356 140 390 116 393 85 c 1
 393 64 362 48 342 48 c 0x8c
105 55 m 0
 167 79 175 83 228 104 c 0
 237 108 246 103 250 95 c 0
 254 86 252 75 243 71 c 0
 194 51 173 41 125 23 c 0
 115 19 105 25 101 34 c 0
 98 42 98 52 105 55 c 0
46 129 m 0
 108 153 115 157 169 178 c 0
 178 182 187 177 191 169 c 0
 195 160 193 149 184 145 c 0
 135 125 113 115 66 97 c 0
 56 93 45 99 42 108 c 0
 39 116 38 126 46 129 c 0
EndSplineSet
Validated: 1
EndChar

StartChar: uniEE98
Encoding: 61080 61080 45
Width: 521
VWidth: 0
Flags: W
HStem: 22 35<91.0974 168.179> 54 35<171.354 247.816> 77 38<40.0977 136.095 346.853 425.73> 109 35<121.354 197.816>
VStem: 438 42<130.657 180.884>
LayerCount: 2
Fore
SplineSet
457 181 m 27x28
 471 181 480 171 480 156 c 0
 480 133 480 121 463 103 c 8
 444 82 423 77 394 77 c 19
 349 77 322 94 299 119 c 8
 287 133 277 146 277 161 c 0
 277 171 289 178 300 178 c 0
 304 178 308 177 311 175 c 8
 330 163 331 145 349 132 c 24
 363 121 374 115 391 115 c 27
 406 115 416 119 425 130 c 24
 436 144 429 159 438 174 c 24
 443 181 449 181 457 181 c 27x28
98 57 m 0x88
 162 72 170 75 226 89 c 0
 228 89 229 89 230 89 c 0
 241 89 248 79 248 69 c 0
 248 62 245 56 237 54 c 0x48
 185 41 163 34 113 22 c 0
 112 22 110 22 109 22 c 0
 100 22 93 28 91 37 c 0
 89 45 90 55 98 57 c 0x88
59 77 m 0x28
 48 77 40 86 40 98 c 0
 40 104 42 110 48 111 c 0
 112 127 120 129 176 144 c 0
 178 144 179 144 180 144 c 0
 191 144 198 133 198 124 c 0
 198 117 195 111 187 109 c 0x18
 135 96 113 89 63 77 c 0
 62 77 60 77 59 77 c 0x28
EndSplineSet
Validated: 1
EndChar

StartChar: uniEE97
Encoding: 61079 61079 46
Width: 638
VWidth: 0
Flags: W
HStem: 48 92<333.297 375> 56 38<462.853 541.73> 99 41<278.177 323.627>
VStem: 316 77<56.4389 87.5846> 554 42<109.657 159.895>
DStem2: 46 129 66 97 0.929151 0.369701<-11.4704 149.427> 105 55 125 23 0.92807 0.372406<-11.4383 149.428>
LayerCount: 2
Fore
SplineSet
573 160 m 27x78
 587 160 596 151 596 135 c 0
 596 112 596 100 579 82 c 8
 560 61 539 56 510 56 c 19
 465 56 438 73 415 98 c 8
 403 112 393 126 393 140 c 0
 393 150 405 157 416 157 c 0
 420 157 424 156 427 154 c 8
 446 142 447 125 465 111 c 24
 480 101 490 94 507 94 c 27
 522 94 532 98 541 109 c 24
 553 123 545 138 554 153 c 24
 559 160 566 160 573 160 c 27x78
342 48 m 0x98
 330 48 319 54 316 70 c 8
 314 79 322 79 331 88 c 0
 337 95 330 101 324 104 c 24
 316 107 311 96 303 99 c 24
 290 104 286 113 275 122 c 17
 275 123 l 0
 275 136 296 140 316 140 c 0x38
 356 140 390 116 393 85 c 1
 393 64 362 48 342 48 c 0x98
105 55 m 0
 167 79 175 83 228 104 c 0
 237 108 246 103 250 95 c 0
 254 86 252 75 243 71 c 0
 194 51 173 41 125 23 c 0
 115 19 105 25 101 34 c 0
 98 42 98 52 105 55 c 0
46 129 m 0
 108 153 115 157 169 178 c 0
 178 182 187 177 191 169 c 0
 195 160 193 149 184 145 c 0
 135 125 113 115 66 97 c 0
 56 93 45 99 42 108 c 0
 39 116 38 126 46 129 c 0
EndSplineSet
Validated: 1
EndChar

StartChar: uniEE9C
Encoding: 61084 61084 47
Width: 836
VWidth: 0
Flags: W
HStem: 25 21G<126 131> 80 33<40.6325 87.8517 230.39 261.593> 95 26<486 522.467> 116 50<600.484 658.768>
VStem: 535 53<152 203.312> 555 51<74.7503 109.945>
DStem2: 46 113 66 81 0.934444 0.356111<1.41816 127.136> 117 58 136 26 0.928918 0.370286<-0.056428 137.372> 314 185 328 155 0.918562 0.395278<-15.2803 504.333>
LayerCount: 2
Fore
SplineSet
640 166 m 0x98
 648 166 665 156 665 148 c 0
 665 129 600 116 600 116 c 1x98
 601 108 606 97 606 88 c 0
 606 76 595 74 583 74 c 0
 561 74 566 96 555 110 c 25
 534 104 555 110 503 95 c 0
 495 93 485 101 485 110 c 0
 485 114 486 117 486 121 c 1xa4
 505 131 518 131 538 139 c 1
 538 151 535 158 535 167 c 0
 535 184 543 204 563 204 c 0
 567 204 571 203 577 202 c 0
 588 199 582 172 588 152 c 1
 604 156 623 166 640 166 c 0x98
782 374 m 0
 792 374 795 370 795 360 c 0
 795 352 786 348 779 345 c 0
 605 271 483 215 328 155 c 9
 320 157 310 153 307 160 c 24
 303 170 306 181 314 185 c 0
 459 244 559 284 763 369 c 0
 767 372 776 374 782 374 c 0
117 58 m 0
 178 82 186 86 240 107 c 0
 242 108 244 108 245 108 c 0
 256 108 264 97 264 87 c 0
 264 82 261 77 255 74 c 0
 206 54 184 44 136 26 c 0
 134 25 132 25 130 25 c 0
 122 25 115 30 112 37 c 0
 109 45 109 55 117 58 c 0
60 80 m 0xc0
 49 80 40 89 40 102 c 0
 40 107 42 111 46 113 c 0
 108 137 106 135 159 157 c 0
 161 158 163 158 165 158 c 0
 175 158 183 147 183 137 c 0
 183 131 181 126 174 124 c 0
 125 104 114 99 66 81 c 0
 64 80 62 80 60 80 c 0xc0
EndSplineSet
Validated: 1
EndChar

StartChar: uniEEA2
Encoding: 61090 61090 48
Width: 893
VWidth: 0
Flags: W
HStem: 22 21G<133 142.5>
AnchorPoint: "Tonal" 540 282 basechar 0
AnchorPoint: "Podchashie" 506 58 basechar 0
LayerCount: 2
Fore
SplineSet
840 334 m 0
 849 334 852 330 853 320 c 0
 853 312 844 308 836 305 c 0
 662 231 540 175 386 115 c 9
 377 117 368 113 364 120 c 24
 360 130 363 141 372 145 c 0
 516 204 616 244 821 329 c 0
 825 332 834 334 840 334 c 0
170 171 m 0
 171 182 186 184 195 182 c 0
 205 181 209 177 214 170 c 0
 220 160 277 92 277 61 c 0
 277 50 272 46 265 46 c 0
 256 46 244 53 239 58 c 8
 209 92 198 115 175 155 c 16
 172 160 169 165 170 171 c 0
154 36 m 0
 154 27 147 22 138 22 c 0
 128 22 120 27 113 35 c 8
 81 70 69 95 46 136 c 16
 43 141 40 146 40 151 c 0
 40 162 54 165 62 165 c 0
 77 164 81 160 88 151 c 16
 95 140 154 68 154 36 c 0
EndSplineSet
Validated: 1
EndChar

StartChar: uniEEA3
Encoding: 61091 61091 49
Width: 893
VWidth: 0
Flags: W
HStem: 22 21G<133 142.5> 80 54<548.97 612.042> 142 54<698.329 744.883>
VStem: 548 65<82.5132 132.281> 697 49<142.929 195.098>
LayerCount: 2
Fore
SplineSet
697 166 m 1
 697 181 709 196 725 196 c 0
 737 196 746 180 746 165 c 0
 746 155 738 142 725 142 c 0
 713 142 700 153 697 166 c 1
613 105 m 0
 613 90 600 80 584 80 c 0
 568 80 551 90 548 105 c 1
 548 125 559 134 580 134 c 0
 596 134 613 124 613 105 c 0
840 334 m 0
 849 334 852 330 853 320 c 0
 853 312 844 308 836 305 c 0
 662 231 540 175 386 115 c 9
 377 117 368 113 364 120 c 25
 360 130 363 141 372 145 c 0
 516 204 616 244 821 329 c 1
 825 332 834 334 840 334 c 0
175 155 m 16
 172 160 171 165 171 169 c 0
 171 177 176 183 188 183 c 0
 202 183 208 178 214 170 c 0
 220 160 277 92 277 61 c 0
 277 50 272 46 265 46 c 0
 256 46 244 53 239 58 c 8
 209 92 198 115 175 155 c 16
154 36 m 0
 154 27 147 22 138 22 c 0
 128 22 120 27 113 35 c 8
 81 70 69 95 46 136 c 16
 43 141 40 146 40 151 c 0
 40 162 54 165 62 165 c 0
 77 164 81 160 88 151 c 17
 95 140 154 68 154 36 c 0
EndSplineSet
Validated: 1
EndChar

StartChar: uniEEA4
Encoding: 61092 61092 50
Width: 893
VWidth: 0
Flags: W
HStem: 22 21G<133 142.5> 70 26<577 613.529>
VStem: 627 52<127 179.467>
LayerCount: 2
Fore
SplineSet
731 141 m 0
 740 141 757 131 757 123 c 0
 757 104 691 91 691 91 c 1
 693 83 698 72 698 63 c 0
 698 51 687 49 674 49 c 0
 653 49 657 71 646 85 c 25
 626 79 646 85 594 70 c 0
 587 68 576 76 576 85 c 0
 576 89 577 92 577 96 c 1
 597 106 610 106 629 114 c 1
 630 126 627 133 627 142 c 0
 627 159 634 180 654 180 c 0
 659 180 663 179 668 177 c 0
 680 174 674 147 679 127 c 1
 696 132 715 141 731 141 c 0
840 334 m 0
 849 334 853 330 853 320 c 0
 853 312 844 308 836 305 c 0
 662 231 540 175 386 115 c 9
 377 117 368 113 364 120 c 24
 360 130 363 141 372 145 c 0
 516 204 616 244 821 329 c 0
 825 332 834 334 840 334 c 0
170 171 m 0
 171 182 186 184 195 182 c 0
 205 181 209 177 214 170 c 0
 221 160 278 92 278 61 c 0
 278 50 272 46 265 46 c 0
 256 46 244 53 239 58 c 8
 210 92 198 115 176 155 c 16
 172 160 169 165 170 171 c 0
154 36 m 0
 154 27 147 22 138 22 c 0
 128 22 120 27 113 35 c 8
 82 70 69 95 46 136 c 16
 43 141 40 146 40 151 c 0
 40 162 54 165 62 165 c 0
 77 164 81 160 88 151 c 16
 95 140 154 68 154 36 c 0
EndSplineSet
Validated: 1
EndChar

StartChar: uniEEA5
Encoding: 61093 61093 51
Width: 764
VWidth: 0
Flags: W
HStem: 22 21G<131 139>
DStem2: 242 121 256 91 0.918562 0.395278<-16.3019 504.333>
LayerCount: 2
Fore
SplineSet
710 310 m 0
 720 310 723 306 723 296 c 0
 723 288 714 284 707 281 c 0
 533 207 411 151 256 91 c 9
 248 93 238 89 234 96 c 24
 230 106 233 117 242 121 c 0
 387 180 487 220 691 305 c 0
 695 308 704 310 710 310 c 0
40 147 m 0
 42 158 56 160 66 158 c 0
 75 157 79 153 85 146 c 0
 91 136 148 68 148 37 c 0
 148 26 142 22 136 22 c 0
 126 22 114 29 110 34 c 8
 80 68 68 91 46 131 c 16
 43 136 39 141 40 147 c 0
EndSplineSet
Validated: 1
EndChar

StartChar: uniEEB1
Encoding: 61105 61105 52
Width: 894
VWidth: 0
Flags: W
HStem: 20 21G<118.5 123.5> 69 55<505.701 565.382> 100 53<662.934 709.438> 123 35<117.797 185.637> 252 34<770.295 853.848>
VStem: 503 64<72.6521 121.478> 662 48<100.267 152.101>
DStem2: 111 54 128 21 0.947001 0.32123<0.487297 132.171 265.729 754.061>
AnchorPoint: "Podchashie" 422 25 basechar 0
AnchorPoint: "Tonal" 515.252 256.618 basechar 0
LayerCount: 2
Fore
SplineSet
662 129 m 4xae
 662 143 678 153 690 153 c 4xae
 706 153 710 137 710 123 c 4x9e
 710 110 699 100 687 100 c 4
 673 100 662 115 662 129 c 4xae
503 102 m 4
 503 117 517 124 531 124 c 4
 549 124 567 112 567 93 c 4
 567 78 555 69 541 69 c 4xce
 522 69 503 84 503 102 c 4
281 180 m 1
 292 183 304 185 314 185 c 0
 329 185 343 181 351 168 c 0
 356 159 357 155 361 147 c 25
 792 285 l 18
 795 285 820 286 829 286 c 0
 843 286 855 284 854 270 c 1
 855 254 846 252 834 252 c 0
 829 252 826 252 823 252 c 0
 817 252 813 252 800 249 c 0
 686 213 584 183 380 112 c 8
 371 109 366 106 356 106 c 27
 315 106 289 172 281 180 c 1
111 54 m 0
 174 73 182 76 237 94 c 0
 239 94 241 94 242 94 c 0
 253 94 260 83 260 74 c 0
 260 67 257 62 250 59 c 0
 199 44 177 36 128 21 c 0
 126 20 124 20 123 20 c 0
 114 20 107 26 105 34 c 0
 103 42 103 52 111 54 c 0
64 89 m 0
 62 89 60 88 59 88 c 0
 48 88 40 99 40 110 c 0
 40 116 42 121 47 123 c 0
 111 142 108 140 163 158 c 0
 165 158 166 158 168 158 c 0
 178 158 186 147 186 137 c 0
 186 131 183 126 176 123 c 0x9e
 125 108 113 104 64 89 c 0
EndSplineSet
Validated: 1
EndChar

StartChar: uni0001
Encoding: 1 1 54
Width: 500
Flags: W
HStem: 0 19<66 435> 748 22<66 435>
VStem: 37 22<34 733> 442 22<34 733>
DStem2: 66 748 59 733 0.465951 -0.884811<10.0105 395.419 421.078 806.952> 59 34 66 19 0.465951 0.884811<0 385.408 411.068 796.942>
LayerCount: 2
Fore
SplineSet
37 770 m 1
 464 770 l 1
 464 0 l 1
 37 0 l 1
 37 770 l 1
66 748 m 1
 250 398 l 1
 435 748 l 1
 66 748 l 1
258 383 m 1
 442 34 l 1
 442 733 l 1
 258 383 l 1
435 19 m 1
 250 369 l 1
 66 19 l 1
 435 19 l 1
59 733 m 1
 59 34 l 1
 243 383 l 1
 59 733 l 1
EndSplineSet
Validated: 1
EndChar

StartChar: uni0002
Encoding: 2 2 55
Width: 500
Flags: W
HStem: 0 19<66 435> 748 22<66 435>
VStem: 37 22<34 733> 442 22<34 733>
DStem2: 66 748 59 733 0.465951 -0.884811<10.0105 395.419 421.078 806.952> 59 34 66 19 0.465951 0.884811<0 385.408 411.068 796.942>
LayerCount: 2
Fore
SplineSet
37 770 m 1
 464 770 l 1
 464 0 l 1
 37 0 l 1
 37 770 l 1
66 748 m 1
 250 398 l 1
 435 748 l 1
 66 748 l 1
258 383 m 1
 442 34 l 1
 442 733 l 1
 258 383 l 1
435 19 m 1
 250 369 l 1
 66 19 l 1
 435 19 l 1
59 733 m 1
 59 34 l 1
 243 383 l 1
 59 733 l 1
EndSplineSet
Validated: 1
EndChar

StartChar: uni0003
Encoding: 3 3 56
Width: 500
Flags: W
HStem: 0 19<66 435> 748 22<66 435>
VStem: 37 22<34 733> 442 22<34 733>
DStem2: 66 748 59 733 0.465951 -0.884811<10.0105 395.419 421.078 806.952> 59 34 66 19 0.465951 0.884811<0 385.408 411.068 796.942>
LayerCount: 2
Fore
SplineSet
37 770 m 1
 464 770 l 1
 464 0 l 1
 37 0 l 1
 37 770 l 1
66 748 m 1
 250 398 l 1
 435 748 l 1
 66 748 l 1
258 383 m 1
 442 34 l 1
 442 733 l 1
 258 383 l 1
435 19 m 1
 250 369 l 1
 66 19 l 1
 435 19 l 1
59 733 m 1
 59 34 l 1
 243 383 l 1
 59 733 l 1
EndSplineSet
Validated: 1
EndChar

StartChar: uni0004
Encoding: 4 4 57
Width: 500
Flags: W
HStem: 0 19<66 435> 748 22<66 435>
VStem: 37 22<34 733> 442 22<34 733>
DStem2: 66 748 59 733 0.465951 -0.884811<10.0105 395.419 421.078 806.952> 59 34 66 19 0.465951 0.884811<0 385.408 411.068 796.942>
LayerCount: 2
Fore
SplineSet
37 770 m 1
 464 770 l 1
 464 0 l 1
 37 0 l 1
 37 770 l 1
66 748 m 1
 250 398 l 1
 435 748 l 1
 66 748 l 1
258 383 m 1
 442 34 l 1
 442 733 l 1
 258 383 l 1
435 19 m 1
 250 369 l 1
 66 19 l 1
 435 19 l 1
59 733 m 1
 59 34 l 1
 243 383 l 1
 59 733 l 1
EndSplineSet
Validated: 1
EndChar

StartChar: uni0005
Encoding: 5 5 58
Width: 500
Flags: W
HStem: 0 19<66 435> 748 22<66 435>
VStem: 37 22<34 733> 442 22<34 733>
DStem2: 66 748 59 733 0.465951 -0.884811<10.0105 395.419 421.078 806.952> 59 34 66 19 0.465951 0.884811<0 385.408 411.068 796.942>
LayerCount: 2
Fore
SplineSet
37 770 m 1
 464 770 l 1
 464 0 l 1
 37 0 l 1
 37 770 l 1
66 748 m 1
 250 398 l 1
 435 748 l 1
 66 748 l 1
258 383 m 1
 442 34 l 1
 442 733 l 1
 258 383 l 1
435 19 m 1
 250 369 l 1
 66 19 l 1
 435 19 l 1
59 733 m 1
 59 34 l 1
 243 383 l 1
 59 733 l 1
EndSplineSet
Validated: 1
EndChar

StartChar: uni0006
Encoding: 6 6 59
Width: 500
Flags: W
HStem: 0 19<66 435> 748 22<66 435>
VStem: 37 22<34 733> 442 22<34 733>
DStem2: 66 748 59 733 0.465951 -0.884811<10.0105 395.419 421.078 806.952> 59 34 66 19 0.465951 0.884811<0 385.408 411.068 796.942>
LayerCount: 2
Fore
SplineSet
37 770 m 1
 464 770 l 1
 464 0 l 1
 37 0 l 1
 37 770 l 1
66 748 m 1
 250 398 l 1
 435 748 l 1
 66 748 l 1
258 383 m 1
 442 34 l 1
 442 733 l 1
 258 383 l 1
435 19 m 1
 250 369 l 1
 66 19 l 1
 435 19 l 1
59 733 m 1
 59 34 l 1
 243 383 l 1
 59 733 l 1
EndSplineSet
Validated: 1
EndChar

StartChar: uni0007
Encoding: 7 7 60
Width: 500
Flags: W
HStem: 0 19<66 435> 748 22<66 435>
VStem: 37 22<34 733> 442 22<34 733>
DStem2: 66 748 59 733 0.465951 -0.884811<10.0105 395.419 421.078 806.952> 59 34 66 19 0.465951 0.884811<0 385.408 411.068 796.942>
LayerCount: 2
Fore
SplineSet
37 770 m 1
 464 770 l 1
 464 0 l 1
 37 0 l 1
 37 770 l 1
66 748 m 1
 250 398 l 1
 435 748 l 1
 66 748 l 1
258 383 m 1
 442 34 l 1
 442 733 l 1
 258 383 l 1
435 19 m 1
 250 369 l 1
 66 19 l 1
 435 19 l 1
59 733 m 1
 59 34 l 1
 243 383 l 1
 59 733 l 1
EndSplineSet
Validated: 1
EndChar

StartChar: uni000B
Encoding: 11 11 64
Width: 500
Flags: W
HStem: 0 19<66 435> 748 22<66 435>
VStem: 37 22<34 733> 442 22<34 733>
DStem2: 66 748 59 733 0.465951 -0.884811<10.0105 395.419 421.078 806.952> 59 34 66 19 0.465951 0.884811<0 385.408 411.068 796.942>
LayerCount: 2
Fore
SplineSet
37 770 m 1
 464 770 l 1
 464 0 l 1
 37 0 l 1
 37 770 l 1
66 748 m 1
 250 398 l 1
 435 748 l 1
 66 748 l 1
258 383 m 1
 442 34 l 1
 442 733 l 1
 258 383 l 1
435 19 m 1
 250 369 l 1
 66 19 l 1
 435 19 l 1
59 733 m 1
 59 34 l 1
 243 383 l 1
 59 733 l 1
EndSplineSet
Validated: 1
EndChar

StartChar: uni000C
Encoding: 12 12 65
Width: 500
Flags: W
HStem: 0 19<66 435> 748 22<66 435>
VStem: 37 22<34 733> 442 22<34 733>
DStem2: 66 748 59 733 0.465951 -0.884811<10.0105 395.419 421.078 806.952> 59 34 66 19 0.465951 0.884811<0 385.408 411.068 796.942>
LayerCount: 2
Fore
SplineSet
37 770 m 1
 464 770 l 1
 464 0 l 1
 37 0 l 1
 37 770 l 1
66 748 m 1
 250 398 l 1
 435 748 l 1
 66 748 l 1
258 383 m 1
 442 34 l 1
 442 733 l 1
 258 383 l 1
435 19 m 1
 250 369 l 1
 66 19 l 1
 435 19 l 1
59 733 m 1
 59 34 l 1
 243 383 l 1
 59 733 l 1
EndSplineSet
Validated: 1
EndChar

StartChar: uni000E
Encoding: 14 14 67
Width: 500
Flags: W
HStem: 0 19<66 435> 748 22<66 435>
VStem: 37 22<34 733> 442 22<34 733>
DStem2: 66 748 59 733 0.465951 -0.884811<10.0105 395.419 421.078 806.952> 59 34 66 19 0.465951 0.884811<0 385.408 411.068 796.942>
LayerCount: 2
Fore
SplineSet
37 770 m 1
 464 770 l 1
 464 0 l 1
 37 0 l 1
 37 770 l 1
66 748 m 1
 250 398 l 1
 435 748 l 1
 66 748 l 1
258 383 m 1
 442 34 l 1
 442 733 l 1
 258 383 l 1
435 19 m 1
 250 369 l 1
 66 19 l 1
 435 19 l 1
59 733 m 1
 59 34 l 1
 243 383 l 1
 59 733 l 1
EndSplineSet
Validated: 1
EndChar

StartChar: uni000F
Encoding: 15 15 68
Width: 500
Flags: W
HStem: 0 19<66 435> 748 22<66 435>
VStem: 37 22<34 733> 442 22<34 733>
DStem2: 66 748 59 733 0.465951 -0.884811<10.0105 395.419 421.078 806.952> 59 34 66 19 0.465951 0.884811<0 385.408 411.068 796.942>
LayerCount: 2
Fore
SplineSet
37 770 m 1
 464 770 l 1
 464 0 l 1
 37 0 l 1
 37 770 l 1
66 748 m 1
 250 398 l 1
 435 748 l 1
 66 748 l 1
258 383 m 1
 442 34 l 1
 442 733 l 1
 258 383 l 1
435 19 m 1
 250 369 l 1
 66 19 l 1
 435 19 l 1
59 733 m 1
 59 34 l 1
 243 383 l 1
 59 733 l 1
EndSplineSet
Validated: 1
EndChar

StartChar: uni0010
Encoding: 16 16 69
Width: 500
Flags: W
HStem: 0 19<66 435> 748 22<66 435>
VStem: 37 22<34 733> 442 22<34 733>
DStem2: 66 748 59 733 0.465951 -0.884811<10.0105 395.419 421.078 806.952> 59 34 66 19 0.465951 0.884811<0 385.408 411.068 796.942>
LayerCount: 2
Fore
SplineSet
37 770 m 1
 464 770 l 1
 464 0 l 1
 37 0 l 1
 37 770 l 1
66 748 m 1
 250 398 l 1
 435 748 l 1
 66 748 l 1
258 383 m 1
 442 34 l 1
 442 733 l 1
 258 383 l 1
435 19 m 1
 250 369 l 1
 66 19 l 1
 435 19 l 1
59 733 m 1
 59 34 l 1
 243 383 l 1
 59 733 l 1
EndSplineSet
Validated: 1
EndChar

StartChar: uni0011
Encoding: 17 17 70
Width: 500
Flags: W
HStem: 0 19<66 435> 748 22<66 435>
VStem: 37 22<34 733> 442 22<34 733>
DStem2: 66 748 59 733 0.465951 -0.884811<10.0105 395.419 421.078 806.952> 59 34 66 19 0.465951 0.884811<0 385.408 411.068 796.942>
LayerCount: 2
Fore
SplineSet
37 770 m 1
 464 770 l 1
 464 0 l 1
 37 0 l 1
 37 770 l 1
66 748 m 1
 250 398 l 1
 435 748 l 1
 66 748 l 1
258 383 m 1
 442 34 l 1
 442 733 l 1
 258 383 l 1
435 19 m 1
 250 369 l 1
 66 19 l 1
 435 19 l 1
59 733 m 1
 59 34 l 1
 243 383 l 1
 59 733 l 1
EndSplineSet
Validated: 1
EndChar

StartChar: uni0012
Encoding: 18 18 71
Width: 500
Flags: W
HStem: 0 19<66 435> 748 22<66 435>
VStem: 37 22<34 733> 442 22<34 733>
DStem2: 66 748 59 733 0.465951 -0.884811<10.0105 395.419 421.078 806.952> 59 34 66 19 0.465951 0.884811<0 385.408 411.068 796.942>
LayerCount: 2
Fore
SplineSet
37 770 m 1
 464 770 l 1
 464 0 l 1
 37 0 l 1
 37 770 l 1
66 748 m 1
 250 398 l 1
 435 748 l 1
 66 748 l 1
258 383 m 1
 442 34 l 1
 442 733 l 1
 258 383 l 1
435 19 m 1
 250 369 l 1
 66 19 l 1
 435 19 l 1
59 733 m 1
 59 34 l 1
 243 383 l 1
 59 733 l 1
EndSplineSet
Validated: 1
EndChar

StartChar: uni0013
Encoding: 19 19 72
Width: 500
Flags: W
HStem: 0 19<66 435> 748 22<66 435>
VStem: 37 22<34 733> 442 22<34 733>
DStem2: 66 748 59 733 0.465951 -0.884811<10.0105 395.419 421.078 806.952> 59 34 66 19 0.465951 0.884811<0 385.408 411.068 796.942>
LayerCount: 2
Fore
SplineSet
37 770 m 1
 464 770 l 1
 464 0 l 1
 37 0 l 1
 37 770 l 1
66 748 m 1
 250 398 l 1
 435 748 l 1
 66 748 l 1
258 383 m 1
 442 34 l 1
 442 733 l 1
 258 383 l 1
435 19 m 1
 250 369 l 1
 66 19 l 1
 435 19 l 1
59 733 m 1
 59 34 l 1
 243 383 l 1
 59 733 l 1
EndSplineSet
Validated: 1
EndChar

StartChar: uni0014
Encoding: 20 20 73
Width: 500
Flags: W
HStem: 0 19<66 435> 748 22<66 435>
VStem: 37 22<34 733> 442 22<34 733>
DStem2: 66 748 59 733 0.465951 -0.884811<10.0105 395.419 421.078 806.952> 59 34 66 19 0.465951 0.884811<0 385.408 411.068 796.942>
LayerCount: 2
Fore
SplineSet
37 770 m 1
 464 770 l 1
 464 0 l 1
 37 0 l 1
 37 770 l 1
66 748 m 1
 250 398 l 1
 435 748 l 1
 66 748 l 1
258 383 m 1
 442 34 l 1
 442 733 l 1
 258 383 l 1
435 19 m 1
 250 369 l 1
 66 19 l 1
 435 19 l 1
59 733 m 1
 59 34 l 1
 243 383 l 1
 59 733 l 1
EndSplineSet
Validated: 1
EndChar

StartChar: uni0015
Encoding: 21 21 74
Width: 500
Flags: W
HStem: 0 19<66 435> 748 22<66 435>
VStem: 37 22<34 733> 442 22<34 733>
DStem2: 66 748 59 733 0.465951 -0.884811<10.0105 395.419 421.078 806.952> 59 34 66 19 0.465951 0.884811<0 385.408 411.068 796.942>
LayerCount: 2
Fore
SplineSet
37 770 m 1
 464 770 l 1
 464 0 l 1
 37 0 l 1
 37 770 l 1
66 748 m 1
 250 398 l 1
 435 748 l 1
 66 748 l 1
258 383 m 1
 442 34 l 1
 442 733 l 1
 258 383 l 1
435 19 m 1
 250 369 l 1
 66 19 l 1
 435 19 l 1
59 733 m 1
 59 34 l 1
 243 383 l 1
 59 733 l 1
EndSplineSet
Validated: 1
EndChar

StartChar: uni0016
Encoding: 22 22 75
Width: 500
Flags: W
HStem: 0 19<66 435> 748 22<66 435>
VStem: 37 22<34 733> 442 22<34 733>
DStem2: 66 748 59 733 0.465951 -0.884811<10.0105 395.419 421.078 806.952> 59 34 66 19 0.465951 0.884811<0 385.408 411.068 796.942>
LayerCount: 2
Fore
SplineSet
37 770 m 1
 464 770 l 1
 464 0 l 1
 37 0 l 1
 37 770 l 1
66 748 m 1
 250 398 l 1
 435 748 l 1
 66 748 l 1
258 383 m 1
 442 34 l 1
 442 733 l 1
 258 383 l 1
435 19 m 1
 250 369 l 1
 66 19 l 1
 435 19 l 1
59 733 m 1
 59 34 l 1
 243 383 l 1
 59 733 l 1
EndSplineSet
Validated: 1
EndChar

StartChar: uni0017
Encoding: 23 23 76
Width: 500
Flags: W
HStem: 0 19<66 435> 748 22<66 435>
VStem: 37 22<34 733> 442 22<34 733>
DStem2: 66 748 59 733 0.465951 -0.884811<10.0105 395.419 421.078 806.952> 59 34 66 19 0.465951 0.884811<0 385.408 411.068 796.942>
LayerCount: 2
Fore
SplineSet
37 770 m 1
 464 770 l 1
 464 0 l 1
 37 0 l 1
 37 770 l 1
66 748 m 1
 250 398 l 1
 435 748 l 1
 66 748 l 1
258 383 m 1
 442 34 l 1
 442 733 l 1
 258 383 l 1
435 19 m 1
 250 369 l 1
 66 19 l 1
 435 19 l 1
59 733 m 1
 59 34 l 1
 243 383 l 1
 59 733 l 1
EndSplineSet
Validated: 1
EndChar

StartChar: uni0018
Encoding: 24 24 77
Width: 500
Flags: W
HStem: 0 19<66 435> 748 22<66 435>
VStem: 37 22<34 733> 442 22<34 733>
DStem2: 66 748 59 733 0.465951 -0.884811<10.0105 395.419 421.078 806.952> 59 34 66 19 0.465951 0.884811<0 385.408 411.068 796.942>
LayerCount: 2
Fore
SplineSet
37 770 m 1
 464 770 l 1
 464 0 l 1
 37 0 l 1
 37 770 l 1
66 748 m 1
 250 398 l 1
 435 748 l 1
 66 748 l 1
258 383 m 1
 442 34 l 1
 442 733 l 1
 258 383 l 1
435 19 m 1
 250 369 l 1
 66 19 l 1
 435 19 l 1
59 733 m 1
 59 34 l 1
 243 383 l 1
 59 733 l 1
EndSplineSet
Validated: 1
EndChar

StartChar: uni0019
Encoding: 25 25 78
Width: 500
Flags: W
HStem: 0 19<66 435> 748 22<66 435>
VStem: 37 22<34 733> 442 22<34 733>
DStem2: 66 748 59 733 0.465951 -0.884811<10.0105 395.419 421.078 806.952> 59 34 66 19 0.465951 0.884811<0 385.408 411.068 796.942>
LayerCount: 2
Fore
SplineSet
37 770 m 1
 464 770 l 1
 464 0 l 1
 37 0 l 1
 37 770 l 1
66 748 m 1
 250 398 l 1
 435 748 l 1
 66 748 l 1
258 383 m 1
 442 34 l 1
 442 733 l 1
 258 383 l 1
435 19 m 1
 250 369 l 1
 66 19 l 1
 435 19 l 1
59 733 m 1
 59 34 l 1
 243 383 l 1
 59 733 l 1
EndSplineSet
Validated: 1
EndChar

StartChar: uni001A
Encoding: 26 26 79
Width: 500
Flags: W
HStem: 0 19<66 435> 748 22<66 435>
VStem: 37 22<34 733> 442 22<34 733>
DStem2: 66 748 59 733 0.465951 -0.884811<10.0105 395.419 421.078 806.952> 59 34 66 19 0.465951 0.884811<0 385.408 411.068 796.942>
LayerCount: 2
Fore
SplineSet
37 770 m 1
 464 770 l 1
 464 0 l 1
 37 0 l 1
 37 770 l 1
66 748 m 1
 250 398 l 1
 435 748 l 1
 66 748 l 1
258 383 m 1
 442 34 l 1
 442 733 l 1
 258 383 l 1
435 19 m 1
 250 369 l 1
 66 19 l 1
 435 19 l 1
59 733 m 1
 59 34 l 1
 243 383 l 1
 59 733 l 1
EndSplineSet
Validated: 1
EndChar

StartChar: uni001B
Encoding: 27 27 80
Width: 500
Flags: W
HStem: 0 19<66 435> 748 22<66 435>
VStem: 37 22<34 733> 442 22<34 733>
DStem2: 66 748 59 733 0.465951 -0.884811<10.0105 395.419 421.078 806.952> 59 34 66 19 0.465951 0.884811<0 385.408 411.068 796.942>
LayerCount: 2
Fore
SplineSet
37 770 m 1
 464 770 l 1
 464 0 l 1
 37 0 l 1
 37 770 l 1
66 748 m 1
 250 398 l 1
 435 748 l 1
 66 748 l 1
258 383 m 1
 442 34 l 1
 442 733 l 1
 258 383 l 1
435 19 m 1
 250 369 l 1
 66 19 l 1
 435 19 l 1
59 733 m 1
 59 34 l 1
 243 383 l 1
 59 733 l 1
EndSplineSet
Validated: 1
EndChar

StartChar: uni001C
Encoding: 28 28 81
Width: 500
Flags: W
HStem: 0 19<66 435> 748 22<66 435>
VStem: 37 22<34 733> 442 22<34 733>
DStem2: 66 748 59 733 0.465951 -0.884811<10.0105 395.419 421.078 806.952> 59 34 66 19 0.465951 0.884811<0 385.408 411.068 796.942>
LayerCount: 2
Fore
SplineSet
37 770 m 1
 464 770 l 1
 464 0 l 1
 37 0 l 1
 37 770 l 1
66 748 m 1
 250 398 l 1
 435 748 l 1
 66 748 l 1
258 383 m 1
 442 34 l 1
 442 733 l 1
 258 383 l 1
435 19 m 1
 250 369 l 1
 66 19 l 1
 435 19 l 1
59 733 m 1
 59 34 l 1
 243 383 l 1
 59 733 l 1
EndSplineSet
Validated: 1
EndChar

StartChar: uni001E
Encoding: 30 30 83
Width: 500
Flags: W
HStem: 0 19<66 435> 748 22<66 435>
VStem: 37 22<34 733> 442 22<34 733>
DStem2: 66 748 59 733 0.465951 -0.884811<10.0105 395.419 421.078 806.952> 59 34 66 19 0.465951 0.884811<0 385.408 411.068 796.942>
LayerCount: 2
Fore
SplineSet
37 770 m 1
 464 770 l 1
 464 0 l 1
 37 0 l 1
 37 770 l 1
66 748 m 1
 250 398 l 1
 435 748 l 1
 66 748 l 1
258 383 m 1
 442 34 l 1
 442 733 l 1
 258 383 l 1
435 19 m 1
 250 369 l 1
 66 19 l 1
 435 19 l 1
59 733 m 1
 59 34 l 1
 243 383 l 1
 59 733 l 1
EndSplineSet
Validated: 1
EndChar

StartChar: uni001F
Encoding: 31 31 84
Width: 500
Flags: W
HStem: 0 19<66 435> 748 22<66 435>
VStem: 37 22<34 733> 442 22<34 733>
DStem2: 66 748 59 733 0.465951 -0.884811<10.0105 395.419 421.078 806.952> 59 34 66 19 0.465951 0.884811<0 385.408 411.068 796.942>
LayerCount: 2
Fore
SplineSet
37 770 m 1
 464 770 l 1
 464 0 l 1
 37 0 l 1
 37 770 l 1
66 748 m 1
 250 398 l 1
 435 748 l 1
 66 748 l 1
258 383 m 1
 442 34 l 1
 442 733 l 1
 258 383 l 1
435 19 m 1
 250 369 l 1
 66 19 l 1
 435 19 l 1
59 733 m 1
 59 34 l 1
 243 383 l 1
 59 733 l 1
EndSplineSet
Validated: 1
EndChar

StartChar: asterisk
Encoding: 42 42 86
Width: 252
Flags: W
HStem: 197 67<113.191 138.664> 247 73<85.7031 101.726 151.401 167.633> 310 68<117.774 141.087>
VStem: 85 17<269.29 297.351> 151 17<269.777 296.434>
LayerCount: 2
Fore
SplineSet
156 320 m 0x58
 176 320 184 334 202 334 c 0
 206 334 209 331 209 328 c 0
 209 320 196 311 191 308 c 0
 184 303 168 292 168 284 c 0
 168 273 185 263 192 258 c 0
 199 253 212 246 212 238 c 0
 212 234 208 231 203 231 c 0
 185 231 169 247 152 247 c 0x58
 139 247 140 197 127 197 c 0
 110 197 113 250 100 250 c 0
 94 250 79 240 74 239 c 0
 70 237 58 231 51 231 c 0
 47 231 43 233 43 236 c 0
 43 243 58 254 62 257 c 0
 69 264 85 273 85 282 c 0
 85 294 69 304 60 310 c 0xb8
 56 314 41 324 41 331 c 0
 41 331 41 332 41 333 c 0
 42 335 46 336 49 336 c 0
 70 336 78 320 100 320 c 0x58
 114 320 114 340 117 353 c 0
 119 362 122 378 130 378 c 256x38
 145 378 140 326 150 321 c 0
 152 320 154 320 156 320 c 0x58
102 285 m 0
 102 272 112 264 126 264 c 0
 138 264 151 271 151 284 c 0
 151 296 140 310 126 310 c 0xb8
 113 310 102 298 102 285 c 0
EndSplineSet
EndChar

StartChar: parenleft
Encoding: 40 40 87
Width: 184
Flags: W
HStem: -1 21G<129.891 153.411>
VStem: 30.5312 41.2803<110.135 301.732>
LayerCount: 2
Fore
SplineSet
147.651 -1 m 1
 112.131 20.5996 30.5312 89.2402 30.5312 204.92 c 0
 30.5312 326.84 109.731 383 149.091 408.44 c 1
 153.411 400.76 l 1
 103.971 360.92 71.8115 323.96 71.8115 206.36 c 0
 71.8115 83.96 103.971 45.5596 153.411 6.67969 c 1
 147.651 -1 l 1
EndSplineSet
Validated: 1
EndChar

StartChar: parenright
Encoding: 41 41 88
Width: 184
Flags: W
HStem: -1 21G<31 54>
VStem: 112 41<110.143 301.746>
LayerCount: 2
Fore
SplineSet
36 -1 m 1
 31 7 l 1
 80 46 112 84 112 206 c 0
 112 324 80 361 31 401 c 1
 35 408 l 1
 74 383 153 327 153 205 c 0
 153 89 72 21 36 -1 c 1
EndSplineSet
Validated: 1
EndChar

StartChar: uniEA60
Encoding: 60000 60000 89
Width: 270
VWidth: 0
Flags: W
HStem: 22 55<104.209 175.126> 134 50<166.539 228.334>
VStem: 40 63<60.1016 115.245> 164 66<137.975 180.295>
LayerCount: 2
Fore
SplineSet
191 184 m 0
 210 184 230 170 230 155 c 0
 230 140 216 134 203 134 c 0
 183 134 164 151 164 165 c 0
 164 174 173 184 191 184 c 0
103 60 m 9
 129 67 142 77 170 77 c 0
 181 77 190 74 190 58 c 0
 190 44 131 22 92 22 c 0
 76 22 63 26 60 35 c 0
 52 56 43 81 40 106 c 1
 56 116 71 118 79 118 c 0
 97 118 94 95 103 60 c 9
EndSplineSet
Validated: 1
LCarets2: 1 0 
Ligature2: "'ccmp' Znamenny Ligatures 0-1" uniEE75 uniEE5A
Ligature2: "'ccmp' Znamenny Ligatures 0-1" uniEE75 uniEE50
EndChar

StartChar: uniEA62
Encoding: 60002 60002 90
Width: 302
VWidth: 0
Flags: W
HStem: 22 21G<231 249> 182 48<186.852 252.152>
VStem: 186 67<184.937 226.654>
LayerCount: 2
Fore
SplineSet
186 209 m 0
 186 218 195 230 214 230 c 0
 231 230 253 219 253 203 c 0
 253 190 238 182 223 182 c 0
 205 182 186 194 186 209 c 0
205 41 m 0
 146 99 111 142 53 214 c 0
 46 222 40 228 40 239 c 0
 40 252 54 261 69 261 c 0
 73 261 77 260 81 256 c 0
 147 172 183 126 259 52 c 0
 261 49 262 46 262 43 c 0
 262 34 254 24 244 22 c 1
 218 23 217 29 205 41 c 0
EndSplineSet
Validated: 1
LCarets2: 1 0 
Ligature2: "'ccmp' Znamenny Ligatures 0-1" uniEE78 uniEE5A
EndChar

StartChar: uniEA6C
Encoding: 60012 60012 91
Width: 379
VWidth: 0
Flags: W
HStem: 92 46<278.549 337.805> 169 43<240.721 295.232>
VStem: 240 56<171.101 210.025> 278 60<92.9644 136.303>
DStem2: 46 128 66 96 0.92807 0.372406<-11.4383 149.428> 106 54 125 22 0.927846 0.372962<-12.4161 148.513>
LayerCount: 2
Fore
SplineSet
338 114 m 0xd0
 338 98 321 92 307 92 c 0
 290 92 278 106 278 118 c 0
 278 129 288 138 306 138 c 0
 321 138 338 127 338 114 c 0xd0
263 212 m 0
 279 212 296 199 296 186 c 0
 296 174 285 169 273 169 c 0
 256 169 240 183 240 195 c 0xe0
 240 203 248 212 263 212 c 0
106 54 m 0
 167 78 175 82 228 103 c 0
 237 107 247 102 250 94 c 0
 254 85 253 74 244 70 c 0
 194 50 173 40 125 22 c 0
 116 18 105 24 101 33 c 0
 98 41 98 51 106 54 c 0
46 128 m 0
 108 152 116 156 169 177 c 0
 178 181 187 176 191 168 c 0
 195 159 193 148 184 144 c 0
 135 124 114 114 66 96 c 0
 56 92 46 98 42 107 c 0
 39 115 39 125 46 128 c 0
EndSplineSet
Validated: 1
LCarets2: 1 0 
Ligature2: "'ccmp' Znamenny Ligatures 0-1" uniEE8F uniEE51
EndChar

StartChar: uniEA6B
Encoding: 60011 60011 92
Width: 337
VWidth: 0
Flags: W
HStem: 169 43<240.721 295.232>
VStem: 240 56<171.101 210.025>
DStem2: 46 128 66 96 0.92807 0.372406<-11.4383 149.428> 106 54 125 22 0.927846 0.372962<-12.4161 148.513>
LayerCount: 2
Fore
SplineSet
263 212 m 0
 279 212 296 199 296 186 c 0
 296 174 285 169 273 169 c 0
 256 169 240 183 240 195 c 0
 240 203 248 212 263 212 c 0
106 54 m 0
 167 78 175 82 228 103 c 0
 237 107 247 102 250 94 c 0
 254 85 253 74 244 70 c 0
 194 50 173 40 125 22 c 0
 116 18 105 24 101 33 c 0
 98 41 98 51 106 54 c 0
46 128 m 0
 108 152 116 156 169 177 c 0
 178 181 187 176 191 168 c 0
 195 159 193 148 184 144 c 0
 135 124 114 114 66 96 c 0
 56 92 46 98 42 107 c 0
 39 115 39 125 46 128 c 0
EndSplineSet
Validated: 1
LCarets2: 1 0 
Ligature2: "'ccmp' Znamenny Ligatures 0-1" uniEE8F uniEE50
EndChar

StartChar: uniEA70
Encoding: 60016 60016 93
Width: 528
VWidth: 0
Flags: W
HStem: 21 34<92.0974 159.703> 56 35<177.766 247.816> 101 34<40.4608 107.508> 136 35<125.487 196.819> 150 43<431.721 486.232> 197 20G<323 332>
VStem: 431 56<152.101 191.025>
DStem2: 342 212 314 170 0.645198 -0.764016<-11.4404 233.184>
LayerCount: 2
Fore
SplineSet
454 193 m 0xee
 470 193 487 180 487 167 c 0
 487 155 476 150 464 150 c 0
 447 150 431 164 431 176 c 0
 431 184 439 193 454 193 c 0xee
301 195 m 0
 301 208 316 217 330 217 c 0
 334 217 339 216 342 212 c 0
 381 165 424 117 474 53 c 1
 481 44 484 38 485 27 c 0
 485 18 476 11 467 11 c 0
 449 11 442 22 430 34 c 1
 352 129 341 140 314 170 c 0
 307 178 301 184 301 195 c 0
98 55 m 0
 162 72 170 75 226 91 c 0
 227 91 229 91 230 91 c 0
 241 91 248 80 248 71 c 0
 248 64 245 58 237 56 c 0
 186 42 164 34 114 21 c 0
 113 21 111 21 110 21 c 0
 101 21 94 27 92 35 c 0
 90 43 90 53 98 55 c 0
59 101 m 0
 48 101 40 110 40 123 c 0
 40 129 42 134 48 135 c 0
 112 153 119 155 175 171 c 0
 177 171 178 171 180 171 c 0
 190 171 197 161 197 151 c 0
 197 144 194 138 187 136 c 0xf6
 136 122 113 115 64 102 c 0
 62 101 61 101 59 101 c 0
EndSplineSet
Validated: 1
LCarets2: 1 0 
Ligature2: "'ccmp' Znamenny Ligatures 0-1" uniEE93 uniEE50
EndChar

StartChar: uniEE5A
Encoding: 61018 61018 94
Width: 0
VWidth: 0
GlyphClass: 4
Flags: W
HStem: 227 43<-95.2485 -40.7675>
VStem: -96 56<229.101 268.025>
LayerCount: 2
Fore
SplineSet
-73 270 m 0
 -57 270 -40 257 -40 244 c 0
 -40 232 -51 227 -63 227 c 0
 -80 227 -96 241 -96 253 c 0
 -96 261 -89 270 -73 270 c 0
EndSplineSet
Validated: 1
EndChar

StartChar: uni25CC
Encoding: 9676 9676 95
Width: 525
Flags: W
HStem: -11 69<228.499 293.116> 42 69<94.4993 160.204 360.499 425.204> 174 69<34.1933 99.4636 422.499 487.204> 319 69<94.7991 159.92 363.219 422.698> 376 69<228.508 293.246>
VStem: 33 67<174.596 241.864> 93 68<42.7508 109.864 319.837 385.91> 227 67<-9.86539 56.8636 376.837 443.492> 359 67<42.7508 109.97 324.788 392.864> 421 67<174.796 241.864>
AnchorPoint: "Podchashie" 263 -58 basechar 0
AnchorPoint: "Tonal" 72.5 454.6 basechar 0
LayerCount: 2
Fore
SplineSet
67 243 m 0x25
 81 243 84 243 93 233 c 0x23
 102 223 100 223 100 208 c 0
 100 193 100 193 91 183.5 c 0
 82 174 82 174 67 174 c 0
 52 174 52 174 42.5 184 c 0
 33 194 33 194 33 208 c 0
 33 222 33 222 43.5 232.5 c 0
 54 243 54 243 67 243 c 0x25
127 111 m 0x63
 142 111 142 111 151.5 101 c 0
 161 91 161 91 161 76 c 0
 161 62 161 62 151 52 c 0
 141 42 141 42 127 42 c 0
 113 42 113 42 103 52 c 0
 93 62 93 62 93 76 c 0
 93 89 93 89 103.5 100 c 0
 114 111 114 111 127 111 c 0x63
127 388 m 0x33
 141 388 141 386 151 376 c 0x2b
 161 366 161 368 161 354 c 0
 161 339 161 339 151.5 329 c 0
 142 319 142 319 127 319 c 0x33
 113 319 113 319 103 329.5 c 0
 93 340 93 340 93 354 c 0
 93 366 93 365 104 376 c 0x2b
 115 387 115 388 127 388 c 0x33
261 58 m 0xa1
 276 58 276 58 285 48 c 0
 294 38 294 38 294 23 c 0
 294 9 294 10 284.5 0 c 0
 275 -10 275 -11 261 -11 c 0
 247 -11 247 -10 237 0 c 0
 227 10 227 9 227 23 c 0
 227 36 227 36 237.5 47 c 0
 248 58 248 58 261 58 c 0xa1
261 445 m 0x29
 275 445 275 445 284.5 435 c 0
 294 425 294 425 294 411 c 0
 294 396 294 396 285 386 c 0
 276 376 276 376 261 376 c 0
 247 376 247 376 237 386.5 c 0
 227 397 227 397 227 411 c 0
 227 423 227 423 238 434 c 0
 249 445 249 445 261 445 c 0x29
392 111 m 0x6180
 407 111 407 111 416.5 101 c 0
 426 91 426 91 426 76 c 0
 426 61 426 61 416.5 51.5 c 0
 407 42 407 42 392 42 c 0
 379 42 379 42 369 52 c 0
 359 62 359 62 359 76 c 0
 359 89 359 89 369.5 100 c 0
 380 111 380 111 392 111 c 0x6180
392 394 m 0
 407 394 407 394 416.5 384 c 0
 426 374 426 374 426 359 c 0
 426 344 426 344 416.5 334 c 0
 407 324 407 324 392 324 c 0
 379 324 379 324 369 334.5 c 0
 359 345 359 345 359 359 c 0
 359 371 359 371 369.5 382.5 c 0
 380 394 380 394 392 394 c 0
455 243 m 0
 469 243 469 243 478.5 233 c 0
 488 223 488 223 488 208 c 0
 488 193 488 193 479 183.5 c 0
 470 174 470 174 455 174 c 0
 441 174 441 174 431 184 c 0
 421 194 421 194 421 208 c 0x2140
 421 221 421 221 431.5 232 c 0
 442 243 442 243 455 243 c 0
EndSplineSet
Validated: 1
EndChar

StartChar: bracketleft
Encoding: 91 91 96
Width: 151
VWidth: 0
Flags: W
HStem: 4.56445 17.7598<72.8128 120.59> 384.244 18.24<77.8896 124.174>
VStem: 32.9102 44.1171<22.3242 384.116>
LayerCount: 2
Fore
SplineSet
120.707 12.7236 m 0
 120.707 6.75712 117.127 5.40641 110.225 4.56445 c 2
 55.1875 4.56445 l 2
 49.0723 4.56445 43.8311 6.96387 39.4619 6.96387 c 0
 33.296 6.96387 27.6689 10.9345 27.6689 15.6035 c 0
 27.2324 16.5645 27.2324 18.0039 27.2324 19.4443 c 0
 27.2324 22.3242 27.6689 26.6436 27.6689 32.4043 c 2
 27.6689 70.8037 l 2
 27.6689 88.5645 30.7266 112.084 30.7266 143.284 c 0
 30.7266 190.324 32.9102 229.684 32.9102 261.364 c 2
 32.9102 379.444 l 2
 32.9102 395.201 30.9533 396.513 41.6465 399.124 c 0
 45.5771 400.084 51.2559 401.044 56.9336 401.044 c 0
 62.6123 402.004 69.6016 402.004 76.1533 402.004 c 0
 82.7061 402.004 89.6943 402.484 95.8096 402.484 c 0
 101.925 402.484 107.604 402.004 111.971 402.004 c 0
 120.391 400.322 124.201 400.503 124.201 392.404 c 0
 124.201 384.912 121.94 384.244 113.719 384.244 c 2
 87.5107 384.244 l 2
 76.4277 384.244 77.9004 380.323 77.9004 365.044 c 0
 77.9004 355.444 77.4648 342.964 77.4648 328.084 c 2
 77.4648 280.564 l 1
 77.0273 232.564 l 2
 77.0273 206.644 73.9697 181.204 73.9697 157.204 c 0
 73.9697 133.204 72.2217 111.604 72.2217 92.4043 c 2
 72.2217 45.3643 l 2
 72.2217 27.591 72.7031 22.3242 84.0156 22.3242 c 0
 87.9473 21.8438 92.752 22.3242 97.1201 22.3242 c 2
 109.787 22.3242 l 2
 118.158 22.3242 119.923 19.625 120.707 12.7236 c 0
EndSplineSet
Validated: 1
EndChar

StartChar: bracketright
Encoding: 93 93 97
Width: 151
VWidth: 0
Flags: W
HStem: 5 17<27.094 74.3672> 384 18<23.0264 69.9481>
VStem: 23 92<5.02393 21.9985 384.001 400.916> 70 45<22.0044 383.766>
LayerCount: 2
Fore
SplineSet
27 13 m 0xd0
 28 20 29 22 38 22 c 2
 63 22 l 2
 75 22 75 28 75 45 c 2
 75 92 l 2
 75 112 73 133 73 157 c 0
 73 181 70 207 70 233 c 2
 70 365 l 2xd0
 70 380 71 384 60 384 c 2
 34 384 l 2
 25 384 23 385 23 392 c 0xe0
 23 401 27 400 35 402 c 1
 71 402 l 2
 78 402 85 402 90 401 c 1
 96 401 102 400 106 399 c 0
 116 397 115 395 115 379 c 2
 115 261 l 2
 115 230 117 190 117 143 c 0
 117 112 120 89 120 71 c 2
 120 16 l 2
 120 11 114 7 108 7 c 0
 104 7 98 5 92 5 c 2
 37 5 l 2
 30 5 27 7 27 13 c 0xd0
EndSplineSet
Validated: 1
EndChar

StartChar: less
Encoding: 60 60 98
Width: 420
Flags: W
HStem: 0 21G<360.826 405>
VStem: 14.4883 35.6465<176.808 227.543>
DStem2: 14.4883 227.543 50.1348 202.175 0.910979 0.412452<22.0101 413.68> 50.1348 202.175 14.4883 176.808 0.910978 -0.412454<0 391.671>
LayerCount: 2
Fore
SplineSet
405 0 m 1
 14.4883 176.808 l 1
 14.4883 227.543 l 1
 405 404.35 l 1
 405 368.001 l 1
 50.1348 202.175 l 1
 405 36.3477 l 1
 405 0 l 1
EndSplineSet
Validated: 1
EndChar

StartChar: greater
Encoding: 62 62 99
Width: 420
Flags: W
HStem: 0 21G<16 60.1808>
VStem: 371 36<177 228>
DStem2: 16 404 16 368 0.911878 -0.410462<14.7766 406.63> 16 36 16 0 0.911004 0.412398<0 391.864>
LayerCount: 2
Fore
SplineSet
16 0 m 1
 16 36 l 1
 371 202 l 1
 16 368 l 1
 16 404 l 1
 407 228 l 1
 407 177 l 1
 16 0 l 1
EndSplineSet
Validated: 1
EndChar

StartChar: question
Encoding: 63 63 100
Width: 248
Flags: W
HStem: -0.400391 63.958<93.0486 150.395> 390.522 17.933<76.2345 137.986>
VStem: 24.9043 29.1719<309.828 369.507> 91.2559 61.2041<0.931404 61.862> 115.852 9.724<102.412 125.519> 170.191 52.625<247.457 372.79>
LayerCount: 2
Fore
SplineSet
117.567 408.455 m 0xec
 173.052 408.455 222.816 373.786 222.816 315.805 c 0
 222.816 270.377 194.788 235.109 162.756 194.463 c 0
 141.592 166.369 131.867 142.46 125.576 102.412 c 1
 115.852 102.412 l 1
 117.012 155.733 130.292 180.794 149.027 225.546 c 0
 162.756 258.421 170.191 291.297 170.191 318.794 c 0
 170.191 358.843 142.736 390.522 108.416 390.522 c 0
 80.3877 390.522 54.0762 372.591 54.0762 353.462 c 0
 54.0762 340.91 75.8115 327.76 75.8115 309.229 c 0
 75.8115 294.884 66.0879 284.723 52.3604 284.723 c 0
 34.6279 284.723 24.9043 297.873 24.9043 321.783 c 0
 24.9043 371.395 64.9434 408.455 117.567 408.455 c 0xec
121.571 63.5576 m 0
 138.16 63.5576 152.46 48.6143 152.46 30.6826 c 0
 152.46 12.75 139.304 -0.400391 121 -0.400391 c 0
 103.84 -0.400391 91.2559 12.75 91.2559 30.084 c 0xf4
 91.2559 49.2119 104.411 63.5576 121.571 63.5576 c 0
EndSplineSet
Validated: 1
EndChar

StartChar: uniEE55
Encoding: 61013 61013 105
Width: 0
VWidth: 0
GlyphClass: 4
Flags: W
HStem: 122 38<-173.361 -94.2706> 206 20G<-225.5 -218 -67 -56.5>
VStem: -82 42<175.657 225.884>
AnchorPoint: "Podchashie" -138.5 224.5 mark 0
LayerCount: 2
Fore
SplineSet
-63 226 m 27
 -50 226 -40 216 -40 201 c 0
 -40 178 -41 166 -57 148 c 8
 -76 127 -97 122 -126 122 c 19
 -172 122 -198 139 -221 164 c 8
 -234 178 -243 191 -243 206 c 0
 -243 216 -231 223 -220 223 c 0
 -216 223 -212 222 -209 220 c 8
 -190 208 -189 190 -171 177 c 24
 -157 166 -147 160 -129 160 c 27
 -115 160 -104 164 -95 175 c 24
 -84 189 -92 204 -82 219 c 24
 -78 226 -71 226 -63 226 c 27
EndSplineSet
Validated: 1
EndChar

StartChar: uniEE63
Encoding: 61027 61027 106
Width: 352
VWidth: 0
Flags: W
HStem: 22 92<98.2969 140> 73 41<42.0698 88.6272> 82 92<252.297 294> 133 41<196.07 242.627>
VStem: 81 77<30.4389 61.5846> 235 77<90.4389 121.585>
LayerCount: 2
Fore
SplineSet
261 82 m 0x2c
 249 82 238 88 235 104 c 8
 233 113 241 113 250 122 c 0
 256 128 249 135 243 137 c 24
 235 140 230 130 222 133 c 24
 209 137 205 146 194 155 c 17
 194 156 l 0
 194 169 215 174 235 174 c 0x1c
 275 174 309 150 312 119 c 1
 312 98 281 82 261 82 c 0x2c
107 22 m 0x8c
 95 22 84 28 81 44 c 8
 79 53 87 53 96 62 c 0
 102 68 95 75 89 77 c 24
 81 80 76 70 68 73 c 24
 55 77 51 86 40 95 c 17
 40 96 l 0
 40 109 61 114 81 114 c 0x4c
 121 114 155 90 158 59 c 1
 158 38 127 22 107 22 c 0x8c
EndSplineSet
Validated: 1
EndChar

StartChar: uniEEB9
Encoding: 61113 61113 107
Width: 347
VWidth: 0
Flags: W
HStem: 22 92<98.2969 140> 73 41<43.1775 88.6264> 98 56<221.209 292.126>
VStem: 81 77<30.4389 61.5846> 157 63<137.637 191.813>
LayerCount: 2
Fore
SplineSet
220 137 m 9x28
 246 143 259 154 287 154 c 0
 298 154 307 150 307 134 c 0
 307 120 248 98 209 98 c 0
 193 98 181 102 177 111 c 0
 169 133 160 157 157 182 c 1
 173 192 189 195 196 195 c 0
 215 195 211 172 220 137 c 9x28
107 22 m 0x90
 95 22 84 28 81 44 c 0
 79 53 87 53 95 62 c 0
 102 69 95 75 89 78 c 0
 81 81 75 70 67 73 c 0
 54 78 51 87 40 96 c 1
 40 97 l 2
 40 109 61 114 81 114 c 0x50
 121 114 155 90 158 59 c 1
 158 38 127 22 107 22 c 0x90
EndSplineSet
Validated: 1
EndChar

StartChar: uniEEAE
Encoding: 61102 61102 108
Width: 432
VWidth: 0
Flags: W
HStem: 22 22<172.764 207.206> 43 23<254.494 322.546> 76 22<156 193.575> 82 36<368 389.885> 130 30<58.6621 155.885>
VStem: 136 36<44.4958 75.7022>
LayerCount: 2
Fore
SplineSet
192 76 m 27xac
 181 76 172 69 172 58 c 27
 172 48 183 44 193 44 c 27
 201 44 208 51 208 59 c 27
 208 68 201 76 192 76 c 27xac
108 160 m 2
 181 160 236 115 236 88 c 9
 255 79 265 66 286 66 c 16
 337 67 350 118 377 118 c 2
 378 118 l 10
 386 118 390 110 390 102 c 27
 390 90 380 82 368 82 c 17
 368 52 335 43 300 43 c 0x5c
 278 43 255 46 240 50 c 9
 220 39 211 22 188 22 c 27
 164 22 136 32 136 56 c 27
 136 76 146 98 166 98 c 27
 177 98 183 97 194 96 c 25
 161 109 145 130 110 130 c 19
 94 130 72 122 58 122 c 0
 48 122 42 126 42 136 c 3
 42 158 67 160 91 160 c 2
 108 160 l 2
EndSplineSet
Validated: 1
EndChar

StartChar: uniEEAF
Encoding: 61103 61103 109
Width: 535
VWidth: 0
Flags: W
HStem: 22 21G<95 99.5> 69 22<42.3164 71.7973 275.764 310.206> 90 23<357.494 425.546> 123 22<259 296.575> 129 36<471 492.885> 177 30<161.662 258.885>
VStem: 239 36<91.4958 122.702>
DStem2: 47 92 62 67 0.9363 0.3512<0.319823 109.156> 89 47 103 23 0.923136 0.384473<-0.336531 104.494>
LayerCount: 2
Fore
SplineSet
295 123 m 27xd6
 284 123 275 116 275 105 c 27
 275 95 286 91 296 91 c 27
 304 91 311 98 311 106 c 27
 311 115 304 123 295 123 c 27xd6
211 207 m 2
 284 207 339 162 339 135 c 9
 358 126 368 113 389 113 c 16
 440 114 453 165 480 165 c 2
 481 165 l 10
 489 165 493 157 493 149 c 27
 493 137 483 129 471 129 c 17
 471 99 438 90 403 90 c 0xae
 381 90 358 93 343 97 c 9
 323 86 314 69 291 69 c 27
 267 69 239 79 239 103 c 27
 239 123 249 145 269 145 c 27
 280 145 286 144 297 143 c 25
 264 156 248 177 213 177 c 19
 197 177 175 169 161 169 c 0
 151 169 145 173 145 183 c 3
 145 205 170 207 194 207 c 2
 211 207 l 2
89 47 m 0
 135 66 141 69 181 85 c 0
 183 85 185 86 186 86 c 0
 194 86 200 77 200 70 c 0
 200 66 198 62 193 59 c 0
 155 44 139 37 103 23 c 0
 102 22 100 22 99 22 c 0
 91 22 83 32 83 39 c 0
 83 43 84 46 89 47 c 0
57 66 m 0
 49 66 42 74 42 83 c 0
 42 87 44 90 47 92 c 0
 82 105 119 120 147 130 c 0
 148 131 148 131 149 131 c 0
 156 131 160 120 160 116 c 0
 160 111 157 106 152 104 c 0
 115 89 99 81 62 67 c 0
 61 67 59 66 57 66 c 0
EndSplineSet
Validated: 1
EndChar

StartChar: uniEEB2
Encoding: 61106 61106 110
Width: 1000
VWidth: 0
Flags: W
HStem: 22 76<88.2108 125.821> 48 76<236.211 273.821> 64 34<41.6206 79.7195> 90 34<189.621 227.719 394.465 437.519>
VStem: 74 63<27.0625 54.6308> 222 63<53.0625 80.6308>
DStem2: 399 127 418 92 0.960818 0.277179<-3.04702 561.082>
AnchorPoint: "Tonal" 577.252 227.618 basechar 0
AnchorPoint: "Podchashie" 506 20 basechar 0
LayerCount: 2
Fore
SplineSet
243 48 m 0x4c
 233 48 224 53 222 66 c 8
 220 73 226 73 234 81 c 0
 239 86 233 92 228 94 c 24
 222 96 217 87 211 90 c 24
 200 94 197 101 188 108 c 17
 188 109 l 2
 188 120 205 124 222 124 c 0x1c
 254 124 282 104 285 79 c 1
 285 61 259 48 243 48 c 0x4c
95 22 m 0x8c
 85 22 76 27 74 40 c 8
 72 47 78 47 86 55 c 0
 91 60 85 66 80 68 c 24
 74 70 69 61 63 64 c 24
 52 68 49 75 40 82 c 17
 40 83 l 2
 40 94 57 98 74 98 c 0x2c
 106 98 134 78 137 53 c 1
 137 35 111 22 95 22 c 0x8c
317 164 m 5
 328 167 339 170 349 170 c 4
 364 170 381 161 389 148 c 4
 394 139 395 135 399 127 c 29
 599 186 742 232 913 279 c 5
 923 283 931 284 938 284 c 4
 954 284 960 274 959 264 c 5
 959 249 851 218 834 214 c 5
 719 178 630 156 418 92 c 4
 409 89 404 86 394 86 c 31
 351 86 325 156 317 164 c 5
EndSplineSet
Validated: 1
EndChar

StartChar: exclam
Encoding: 33 33 111
Width: 144
Flags: HW
HStem: 0 58.2559<43.5282 99.471> 352.726 20G<62.7627 81.8902>
VStem: 41.833 59.873<1.35599 56.9232 128.648 371.298>
LayerCount: 2
Fore
SplineSet
42 336 m 0
 42 356 53 373 72 373 c 256
 92 373 102 355 102 333 c 0
 101 331 101 329 101 326 c 0
 101 323 101 320 101 316 c 2
 77 102 l 1
 67 102 l 1
 43 316 l 2
 42 325 42 331 42 336 c 0
42 30 m 0
 42 45 56 58 72 58 c 256
 87 58 101 45 101 30 c 0
 101 14 87 0 72 0 c 256
 56 0 42 14 42 30 c 0
EndSplineSet
EndChar

StartChar: quotedbl
Encoding: 34 34 112
Width: 215
Flags: HW
HStem: 240.3 136.8<59.4199 69.5 144.859 156.38>
VStem: 41.1797 47.04<241.387 376.974> 59.4199 10.0801<240.3 277.893> 126.62 47.5195<241.815 377.029> 144.859 11.5205<240.3 276.052>
LayerCount: 2
Fore
SplineSet
151 377 m 4x90
 165 377 174 367 174 352 c 4x90
 174 339 173 324 170 309 c 6
 156 240 l 5
 145 240 l 5x88
 127 337 l 6
 127 339 127 341 127 343 c 6
 127 349 l 6
 127 366 134 377 151 377 c 4x90
64 377 m 0
 78 377 88 366 88 352 c 0xc0
 88 338 85 326 82 309 c 2
 70 240 l 1
 59 240 l 1xa0
 46 310 l 2
 43 329 41 342 41 349 c 0xc0
 41 366 48 377 64 377 c 0
EndSplineSet
EndChar

StartChar: numbersign
Encoding: 35 35 113
Width: 363
Flags: HW
HStem: 118.947 21.9678<41.2676 92.0205 121.022 217.09 246.092 321.617> 230.394 20.8965<41.2676 116.793 147.003 242.467 271.468 321.617> 350.237 20G<144.848 173.588 270.216 299.261>
VStem: 64.2275 24.7725<0 24.7725> 149.42 24.168<346.069 370.237> 189.9 24.1689<0 24.1689> 275.093 24.168<346.069 370.237>
DStem2: 64.2275 0 89 0 0.224242 0.974533<5.55503 122.15 150.062 236.314 263.452 379.912> 189.9 0 214.069 0 0.224242 0.974533<5.4197 122.015 149.927 236.314 263.181 379.912>
LayerCount: 2
Fore
SplineSet
64 0 m 1
 92 119 l 1
 41 119 l 1
 41 141 l 1
 96 141 l 1
 117 230 l 1
 41 230 l 1
 41 251 l 1
 122 251 l 1
 149 370 l 1
 174 370 l 1
 147 251 l 1
 246 251 l 1
 275 370 l 1
 299 370 l 1
 271 251 l 1
 322 251 l 1
 322 230 l 1
 267 230 l 1
 246 141 l 1
 322 141 l 1
 322 119 l 1
 241 119 l 1
 214 0 l 1
 190 0 l 1
 217 119 l 1
 117 119 l 1
 89 0 l 1
 64 0 l 1
121 141 m 1
 221 141 l 1
 242 230 l 1
 142 230 l 1
 121 141 l 1
EndSplineSet
EndChar

StartChar: dollar
Encoding: 36 36 114
Width: 300
Flags: HW
HStem: -2.55664 17.2607<94.5168 136 152.722 178.826> 350.211 17.2617<109.019 136 152.722 187.581>
VStem: 42.6846 40.9941<252.882 335.175> 42.6846 11.3271<61.3667 92.918> 136 16.7217<-36 -2.55664 14.7041 157.105 227.768 350.211 367.747 392.284> 214.753 42.0732<36.7191 124.18> 229.316 10.249<266.064 301.21>
DStem2: 136 227.768 136 168.434 0.811652 -0.584142<-79.6917 0 20.1894 34.6595 54.8489 146.269>
LayerCount: 2
Fore
SplineSet
43 282 m 0xe8
 43 336 87 363 136 368 c 1
 136 392 l 1
 153 392 l 1
 153 368 l 1
 158 367 161 367 164 367 c 2
 168 367 l 2
 172 367 175 367 181 366 c 0
 201 360 213 355 240 345 c 1
 240 266 l 1
 229 266 l 1xea
 229 320 204 350 153 350 c 1
 153 216 l 1
 175 201 194 187 207 177 c 0
 235 155 257 138 257 93 c 0
 257 49 228 22 196 8 c 0
 184 2 169 -3 153 -3 c 1
 153 -36 l 1
 136 -36 l 1
 136 -3 l 1
 97 -3 74 6 43 18 c 1
 43 93 l 1
 54 93 l 1xdc
 54 43 85 15 136 15 c 1
 136 168 l 1
 107 186 83 202 64 224 c 0
 50 240 43 256 43 282 c 0xe8
136 350 m 1
 105 346 84 330 84 299 c 0
 84 287 87 275 95 263 c 0
 103 252 117 240 136 228 c 1
 136 350 l 1
153 15 m 1
 188 21 215 42 215 81 c 0xcc
 215 106 202 118 186 132 c 0
 178 139 167 147 153 157 c 1
 153 15 l 1
EndSplineSet
EndChar

StartChar: percent
Encoding: 37 37 115
Width: 489
Flags: HW
HStem: 0 14.3105<355.328 387.022> 174.9 13.7803<356.578 388.353> 183.381 13.25<100.303 132.749> 358.811 14.3096<99.4097 133.306>
VStem: 42.2803 41.3398<210.207 344.174> 105.35 22.79<0 22.79> 150.399 40.8105<209.038 345.767> 298.27 40.8105<28.2384 158.162> 360.81 23.3203<349.8 373.12> 405.859 40.8105<30.4935 161.296>
DStem2: 105.35 0 128.14 0 0.565733 0.824588<12.8931 452.193>
LayerCount: 2
Fore
SplineSet
384 373 m 1x9fc0
 128 0 l 1
 105 0 l 1
 361 373 l 1
 384 373 l 1x9fc0
191 278 m 0
 191 225 166 183 114 183 c 256xbfc0
 65 183 42 231 42 281 c 0
 42 322 62 351 88 366 c 0
 96 371 105 373 114 373 c 2
 118 373 l 2
 167 373 191 327 191 278 c 0
150 277 m 0
 150 313 146 359 117 359 c 0
 86 359 84 314 84 278 c 0
 84 241 86 197 116 197 c 0
 145 197 150 241 150 277 c 0
447 99 m 0
 447 45 423 0 373 0 c 0
 323 0 298 47 298 98 c 0
 298 138 317 168 343 182 c 0
 352 186 360 189 369 189 c 2
 372 189 l 2xdfc0
 418 189 447 146 447 99 c 0
406 93 m 0
 406 130 401 175 372 175 c 0
 362 175 354 169 348 156 c 0
 342 144 339 122 339 92 c 0
 339 55 344 14 372 14 c 0
 382 14 390 20 396 33 c 0
 403 45 406 65 406 93 c 0
EndSplineSet
EndChar

StartChar: ampersand
Encoding: 38 38 116
Width: 482
Flags: W
HStem: -8 42<327.082 410.377> -8 33<123.119 209.177> 211 11<306 320.297 391.384 421> 360 19<200.331 252.823>
VStem: 42 57<43.1561 137.537> 133 47<234.534 348.951> 270 32<269.417 349.512> 429 11<61.0278 71.4545>
LayerCount: 2
Fore
SplineSet
332 181 m 0x7f
 332 196 321 211 306 211 c 1
 306 222 l 1
 421 222 l 1
 421 211 l 1
 392 211 384 204 371 184 c 0
 358 164 340 146 325 124 c 0
 316 110 307 97 297 85 c 1
 313 66 328 53 340 45 c 0
 353 37 366 34 379 34 c 0
 407 34 423 50 429 74 c 1
 440 67 l 1
 428 24 404 -8 355 -8 c 0xbf
 340 -8 325 -4 310 4 c 0
 294 12 278 25 259 45 c 1
 228 17 196 -8 140 -8 c 0
 95 -8 63 12 49 42 c 0
 44 52 42 62 42 73 c 0
 42 122 70 149 100 172 c 0
 115 184 133 195 155 207 c 1
 142 237 133 255 133 289 c 0
 133 344 173 379 228 379 c 0
 270 379 302 354 302 312 c 0
 302 274 279 256 254 239 c 0
 243 231 229 223 212 214 c 1
 234 173 258 136 284 101 c 1
 317 139 332 155 332 181 c 0x7f
228 360 m 0
 200 360 180 338 180 310 c 0
 180 279 192 256 203 232 c 1
 247 252 270 280 270 314 c 0
 270 339 252 360 228 360 c 0
99 98 m 0
 99 56 126 25 168 25 c 0x7f
 204 25 223 42 245 60 c 1
 211 106 189 138 164 189 c 1
 120 164 99 133 99 98 c 0
EndSplineSet
EndChar

StartChar: quotesingle
Encoding: 39 39 117
Width: 132
Flags: HW
HStem: 240 137<60.5 71.5>
VStem: 42.5 47<299.278 376.928> 60.5 11<240 274.5>
LayerCount: 2
Fore
SplineSet
42 337 m 1xc0
 42 349 l 2
 42 366 50 377 66 377 c 0
 80 377 90 367 90 352 c 0xc0
 90 339 88 324 86 309 c 2
 72 240 l 1
 60 240 l 1xa0
 42 337 l 1xc0
EndSplineSet
EndChar

StartChar: plus
Encoding: 43 43 118
Width: 455
Flags: HW
HStem: 175.471 29.6055<42.7969 213.004 240.32 411.228> 355.825 20G<213.004 240.32>
VStem: 213.004 27.3164<0 175.471 205.076 375.825>
LayerCount: 2
Fore
SplineSet
213 0 m 1
 213 175 l 1
 43 175 l 1
 43 205 l 1
 213 205 l 1
 213 376 l 1
 240 376 l 1
 240 205 l 1
 411 205 l 1
 411 175 l 1
 240 175 l 1
 240 0 l 1
 213 0 l 1
EndSplineSet
EndChar

StartChar: comma
Encoding: 44 44 119
Width: 129
Flags: HW
HStem: -93 16.9795<21.2495 39.8263> 1.09766 67.2119<27.7395 80.9468>
VStem: 81.8926 27.5928<-45.361 19.8531>
LayerCount: 2
Fore
SplineSet
63 68 m 4
 91 68 109 43 109 0 c 4
 109 -49 68 -85 26 -93 c 5
 21 -88 20 -83 20 -76 c 5
 56 -67 82 -34 82 -19 c 4
 82 -3 70 0 56 0 c 4
 44 0 25 11 25 34 c 4
 25 53 41 68 63 68 c 4
EndSplineSet
EndChar

StartChar: period
Encoding: 46 46 120
Width: 122
Flags: HW
HStem: 0 69.3701<29.066 92.9357>
VStem: 26.3154 69.3711<2.75061 66.6194>
LayerCount: 2
Fore
SplineSet
26 35 m 0
 26 54 42 69 61 69 c 0
 80 69 96 54 96 35 c 0
 96 16 80 0 61 0 c 0
 42 0 26 16 26 35 c 0
EndSplineSet
EndChar

StartChar: uniEE74
Encoding: 61044 61044 121
Width: 709
VWidth: 0
Flags: W
HStem: 22 21G<102 120 286.5 294.5> 101 21<199.104 204> 183 35<567.25 668.919>
VStem: 233 34<114.563 162.96> 273 36<22.0469 34>
DStem2: 120 63 139 28 0.954201 0.299166<-2.03756 105.948 188.179 565.559> 245 109 221 95 0.937939 -0.346801<-35.4604 -17.6553 68.9424 94.8574> 267 152 235 137 0.360747 -0.932664<-5.64838 32.1681 92.1137 120.412>
AnchorPoint: "Podchashie" 228 3 basechar 0
AnchorPoint: "Tonal" 370 182 basechar 0
LayerCount: 2
Fore
SplineSet
310 86 m 1
 331 78 l 2
 335 76 337 72 337 68 c 0
 337 62 334 57 327 57 c 0
 325 57 324 57 322 58 c 2
 300 66 l 1
 308 46 l 2
 309 44 309 42 309 39 c 0
 309 29 299 22 290 22 c 0
 283 22 277 26 273 34 c 2
 260 69 l 1
 222 57 182 43 139 28 c 1
 130 26 125 22 115 22 c 0
 89 22 48 88 40 96 c 1
 51 99 63 101 73 101 c 0
 88 101 102 97 110 84 c 0
 115 75 120 63 120 63 c 1
 221 95 l 1
 204 101 l 2
 200 102 199 106 199 110 c 0
 199 116 203 122 209 122 c 0
 210 122 211 122 212 122 c 2
 245 109 l 1
 235 137 l 2
 234 140 233 143 233 145 c 0
 233 157 242 163 251 163 c 0
 257 163 264 159 267 152 c 0
 272 139 277 126 282 114 c 1
 608 216 l 2
 613 218 629 218 641 218 c 2
 651 218 l 2
 660 218 670 218 669 204 c 1
 670 184 662 183 656 183 c 2
 645 183 l 2
 628 183 622 182 601 177 c 1
 521 152 428 124 310 86 c 1
EndSplineSet
EndChar

StartChar: uniEE77
Encoding: 61047 61047 122
Width: 345
VWidth: 0
Flags: W
HStem: 22 56<104.209 175.126> 38 92<245.297 288.891> 89 41<189.07 235.627>
VStem: 40 63<61.6372 115.813> 228 77<46.4389 77.5846>
LayerCount: 2
Fore
SplineSet
254 38 m 0x58
 242 38 231 44 228 60 c 8
 226 69 234 69 243 78 c 0
 249 84 242 91 236 93 c 24
 228 96 223 86 215 89 c 24
 202 93 198 102 187 111 c 17
 187 112 l 2
 187 125 208 130 228 130 c 0xb8
 268 130 305 106 305 75 c 1
 305 54 274 38 254 38 c 0x58
103 61 m 9
 129 67 142 78 170 78 c 0
 181 78 190 74 190 58 c 0
 190 44 131 22 92 22 c 0
 76 22 64 26 60 35 c 0
 52 57 43 81 40 106 c 1
 56 116 72 119 79 119 c 0
 98 119 94 96 103 61 c 9
EndSplineSet
EndChar

StartChar: uniEE86
Encoding: 61062 61062 123
Width: 418
VWidth: 0
Flags: W
HStem: 22 42<148.516 201.954> 45 43<252.286 303.85> 162 22<359.57 407.922>
VStem: 145 57<22.8259 50.9495> 252 52<45.39 87.4378>
DStem2: 96 106 87 78 0.965824 0.259199<-0.790615 304.271>
LayerCount: 2
Fore
SplineSet
96 106 m 17x38
 145 121 194 136 218 143 c 0
 231 147 353 184 392 184 c 0
 402 184 408 177 408 174 c 0
 408 170 405 166 400 162 c 1
 282 132 310 139 223 115 c 8
 170 100 134 89 87 78 c 9
 46 78 20 145 12 153 c 1
 24 156 36 158 46 158 c 0
 60 158 74 154 82 141 c 0
 88 132 91 120 96 106 c 17x38
252 71 m 0
 252 84 263 88 274 88 c 0x78
 291 88 304 82 304 64 c 0xb8
 304 49 291 45 280 45 c 0x78
 263 45 252 53 252 71 c 0
202 44 m 0
 202 28 186 22 171 22 c 0
 165 22 152 22 145 33 c 0
 145 34 145 37 145 39 c 0
 145 44 145 50 148 51 c 0
 159 57 171 64 183 64 c 0xb8
 192 64 202 58 202 44 c 0
EndSplineSet
EndChar

StartChar: uniEE95
Encoding: 61077 61077 124
Width: 505
VWidth: 0
Flags: W
HStem: 22 21G<115.5 120> 35 39<383.998 428.218> 228 47<351.377 387.446>
VStem: 340 43<74.072 148> 388 44<163.428 227.305>
DStem2: 46 129 66 97 0.930497 0.366299<1.02632 138.262> 106 55 125 23 0.928719 0.370784<-0.0754642 137.328>
LayerCount: 2
Fore
SplineSet
401 35 m 4x78
 386 35 365 36 351 52 c 4
 340 65 340 66 340 91 c 4
 340 116 347 126 357 148 c 4
 365 167 388 182 388 209 c 4
 388 222 380 228 370 228 c 4
 363 228 357 225 352 220 c 12
 346 215 353 206 347 201 c 20
 342 197 338 195 333 195 c 4
 321 195 312 207 312 220 c 4
 312 255 345 275 377 275 c 4
 408 275 432 246 432 213 c 4
 432 204 430 195 427 184 c 12
 418 150 383 140 383 105 c 4
 383 82 392 74 404 74 c 4
 444 74 416 115 449 115 c 4
 463 115 465 100 465 85 c 4
 465 81 465 77 465 74 c 4
 465 53 434 35 401 35 c 4x78
106 55 m 0
 167 79 175 83 228 104 c 0
 230 105 232 105 234 105 c 0
 245 105 253 94 253 85 c 0
 253 79 250 74 244 71 c 0
 194 51 173 41 125 23 c 0
 123 22 121 22 119 22 c 0xb8
 112 22 104 27 101 34 c 0
 98 42 98 52 106 55 c 0
60 96 m 0
 49 96 40 106 40 118 c 0
 40 123 42 127 46 129 c 0
 108 153 116 157 169 178 c 0
 171 179 173 179 175 179 c 0
 185 179 193 169 193 159 c 0
 193 153 190 148 184 145 c 0
 135 125 114 115 66 97 c 0
 64 96 62 96 60 96 c 0
EndSplineSet
EndChar

StartChar: uniEE8A
Encoding: 61066 61066 125
Width: 233
VWidth: 0
Flags: W
HStem: 22 39<111.998 156.218> 215 47<79.3771 115.446>
VStem: 68 43<61.072 135> 116 44<150.428 214.305>
LayerCount: 2
Fore
SplineSet
129 22 m 0
 114 22 93 23 79 39 c 0
 68 52 68 53 68 78 c 0
 68 103 75 113 85 135 c 0
 93 154 116 169 116 196 c 0
 116 209 108 215 98 215 c 0
 91 215 85 212 80 207 c 8
 74 202 81 193 75 188 c 16
 70 184 66 182 61 182 c 0
 49 182 40 194 40 207 c 0
 40 242 73 262 105 262 c 0
 136 262 160 233 160 200 c 0
 160 191 158 182 155 171 c 8
 146 137 111 127 111 92 c 0
 111 69 120 61 132 61 c 0
 172 61 144 102 177 102 c 0
 191 102 193 87 193 72 c 2
 193 61 l 2
 193 40 162 22 129 22 c 0
EndSplineSet
EndChar

StartChar: uniEEA0
Encoding: 61088 61088 126
Width: 892
VWidth: 0
Flags: W
HStem: 21 76<88.2108 125.821> 63 34<41.6206 79.7195> 211 33<756.196 851.962>
VStem: 74 63<26.0625 53.6308> 207 52<118 170.383> 226 45<54.4233 76>
DStem2: 209 105 226 76 0.967525 0.252777<-56.1605 3.6578 54.1727 104.783 165.757 380.016>
LayerCount: 2
Fore
SplineSet
234 171 m 0x38
 265 171 252 147 259 118 c 1x38
 276 123 295 132 311 132 c 0
 320 132 337 122 337 114 c 0
 337 95 271 82 271 82 c 1
 273 74 278 63 278 54 c 0
 278 42 267 40 255 40 c 0
 233 40 237 62 226 76 c 25x34
 206 70 226 76 174 61 c 0
 167 59 157 67 157 76 c 0
 157 80 158 83 157 87 c 1
 177 97 190 97 209 105 c 1
 210 117 207 124 207 133 c 0
 207 151 214 171 234 171 c 0x38
830 244 m 0
 839 244 852 239 852 228 c 0
 852 219 841 213 831 211 c 0
 662 178 560 156 396 119 c 9
 388 121 379 117 375 125 c 0
 371 132 376 143 384 145 c 24
 553 190 621 199 821 243 c 0
 824 244 827 244 830 244 c 0
95 21 m 0xb0
 85 21 76 26 74 39 c 8
 72 46 78 46 86 54 c 0
 91 59 85 65 80 67 c 24
 74 69 69 60 63 63 c 24
 52 67 49 74 40 81 c 17
 40 82 l 2
 40 93 57 97 74 97 c 0x70
 106 97 134 77 137 52 c 1
 137 34 111 21 95 21 c 0xb0
EndSplineSet
EndChar

StartChar: uniEEA1
Encoding: 61089 61089 127
Width: 892
VWidth: 0
Flags: W
HStem: 21 76<88.2108 125.821> 56 55<528.886 587.57> 63 34<41.6206 79.7195> 87 54<685.402 731.429> 211 33<756.196 851.962>
VStem: 74 63<26.0625 53.6308> 207 52<118 170.383> 226 45<54.4233 76> 526 63<59.838 108.572> 684 48<87.5507 140.047>
DStem2: 209 105 226 76 0.967525 0.252777<-56.1605 3.6578 54.1727 104.783 165.757 380.016>
LayerCount: 2
Fore
SplineSet
684 117 m 0x1cc0
 684 131 701 141 712 141 c 0
 729 141 732 124 732 110 c 0
 732 98 722 87 710 87 c 0
 696 87 684 103 684 117 c 0x1cc0
526 89 m 0
 526 105 540 111 553 111 c 0
 572 111 589 99 589 81 c 0
 589 65 578 56 564 56 c 0x4cc0
 545 56 526 72 526 89 c 0
234 171 m 4
 265 171 252 147 259 118 c 5x1ec0
 276 123 295 132 311 132 c 4
 320 132 337 122 337 114 c 4
 337 95 271 82 271 82 c 5
 273 74 278 63 278 54 c 4
 278 42 267 40 255 40 c 4
 233 40 237 62 226 76 c 29x1dc0
 206 70 226 76 174 61 c 4
 167 59 157 67 157 76 c 4
 157 80 158 83 157 87 c 5
 177 97 190 97 209 105 c 5
 210 117 207 124 207 133 c 4x1ec0
 207 151 214 171 234 171 c 4
830 244 m 0
 839 244 852 239 852 228 c 0
 852 219 841 213 831 211 c 0
 662 178 560 156 396 119 c 9
 388 121 379 117 375 125 c 0
 371 132 376 143 384 145 c 24
 553 190 621 199 821 243 c 0
 824 244 827 244 830 244 c 0
95 21 m 4x8cc0
 85 21 76 26 74 39 c 12
 72 46 78 46 86 54 c 4
 91 59 85 65 80 67 c 28
 74 69 69 60 63 63 c 28
 52 67 49 74 40 81 c 21
 40 82 l 6
 40 93 57 97 74 97 c 4x2cc0
 106 97 134 77 137 52 c 5
 137 34 111 21 95 21 c 4x8cc0
EndSplineSet
EndChar

StartChar: uniEEA7
Encoding: 61095 61095 128
Width: 871
VWidth: 0
Flags: W
HStem: 4 53<246.666 314.107> 22 92<98.2969 140> 73 41<43.1775 88.6264> 77 26<353.046 408.06> 93 50<203.353 264.025> 169 33<735.196 830.962>
VStem: 81 77<30.4389 61.5846> 201 65<96.8819 139.063> 245 70<6.22061 53.7394>
LayerCount: 2
Fore
SplineSet
315 30 m 4x8680
 315 10 295 4 279 4 c 4
 259 4 245 20 245 34 c 4
 245 47 257 57 278 57 c 4
 295 57 315 44 315 30 c 4x8680
227 143 m 4x0f
 246 143 266 128 266 113 c 4
 266 99 253 93 240 93 c 4
 220 93 201 109 201 124 c 4
 201 133 210 143 227 143 c 4x0f
107 22 m 4x46
 95 22 84 28 81 44 c 4
 79 53 87 53 95 62 c 4
 102 69 95 75 89 78 c 4
 81 81 75 70 67 73 c 4
 54 78 51 87 40 96 c 5
 40 97 l 6
 40 109 61 114 81 114 c 4x26
 121 114 155 90 158 59 c 5
 158 38 127 22 107 22 c 4x46
375 77 m 9x16
 366 79 353 74 353 89 c 0
 353 95 357 101 363 103 c 8
 532 148 600 157 800 201 c 0
 803 202 806 202 809 202 c 0
 818 202 831 197 831 186 c 0
 831 177 820 171 810 169 c 0
 641 136 539 114 375 77 c 9x16
EndSplineSet
EndChar

StartChar: uniEEA8
Encoding: 61096 61096 129
Width: 975
VWidth: 0
Flags: W
HStem: 4 53<365.666 433.107> 8 75<72.625 110.263> 22 92<217.297 260.891> 49 34<28.1294 63.7202> 73 41<162.177 207.626> 77 26<472.046 527.06> 93 50<322.353 383.025> 169 33<854.196 949.962>
VStem: 58 62<12.3993 40.6308> 200 77<30.4389 61.5846> 320 65<96.8819 139.063> 364 70<6.22061 53.7394>
LayerCount: 2
Fore
SplineSet
80 8 m 4x41c0
 70 8 60 13 58 26 c 4
 56 33 64 33 70 41 c 4
 76 46 70 51 64 53 c 4
 58 55 54 47 48 49 c 4
 36 53 34 60 26 68 c 5
 26 69 l 6
 26 79 42 83 58 83 c 4x11c0
 90 83 120 63 120 38 c 5
 120 21 96 8 80 8 c 4x41c0
434 30 m 4x81d0
 434 10 414 4 398 4 c 4
 378 4 364 20 364 34 c 4
 364 47 376 57 397 57 c 4
 414 57 434 44 434 30 c 4x81d0
346 143 m 4x03e0
 365 143 385 128 385 113 c 4
 385 99 372 93 359 93 c 4
 339 93 320 109 320 124 c 4
 320 133 329 143 346 143 c 4x03e0
226 22 m 4x21c0
 214 22 203 28 200 44 c 4
 198 53 206 53 214 62 c 4
 221 69 214 75 208 78 c 4
 200 81 194 70 186 73 c 4
 173 78 170 87 159 96 c 5
 159 97 l 6
 159 109 180 114 200 114 c 4x09c0
 240 114 277 90 277 59 c 5
 277 38 246 22 226 22 c 4x21c0
494 77 m 13x05c0
 485 79 472 74 472 89 c 4
 472 95 476 101 482 103 c 12
 651 148 719 157 919 201 c 4
 922 202 925 202 928 202 c 4
 937 202 950 197 950 186 c 4
 950 177 939 171 929 169 c 4
 760 136 658 114 494 77 c 13x05c0
EndSplineSet
Colour: ff0000
EndChar

StartChar: uniEEAA
Encoding: 61098 61098 130
Width: 727
VWidth: 0
Flags: W
HStem: 21 44<103.911 170.401>
VStem: 87 51<94.5 132.578>
DStem2: 224 117 238 92 0.959756 0.280834<-12.4914 458.505>
LayerCount: 2
Fore
SplineSet
653 248 m 4
 656 249 659 250 663 250 c 4
 673 250 685 245 685 235 c 4
 685 226 674 220 665 217 c 4
 499 171 399 141 238 92 c 13
 230 93 222 88 217 96 c 4
 212 103 217 114 224 117 c 28
 389 175 457 189 653 248 c 4
102 133 m 0
 117 133 138 132 138 124 c 0
 138 114 108 95 103 65 c 1
 118 62 171 64 171 39 c 0
 171 23 160 21 138 21 c 0
 115 21 85 26 64 35 c 0
 50 41 51 47 51 57 c 0
 53 81 80 108 87 132 c 1
 92 133 97 133 102 133 c 0
EndSplineSet
EndChar

StartChar: uniEEB3
Encoding: 61107 61107 131
Width: 1000
VWidth: 0
Flags: W
HStem: 22 76<88.2108 125.821> 48 76<236.211 273.821> 52 55<573.701 633.382> 64 34<41.6206 79.7195> 83 53<730.934 777.438> 90 34<189.621 227.719 394.465 437.519>
VStem: 74 63<27.0625 54.6308> 222 63<53.0625 80.6308> 571 64<55.6521 104.478> 730 48<83.267 135.101>
DStem2: 399 127 418 92 0.960818 0.277179<-3.04702 561.082>
AnchorPoint: "Tonal" 577.252 227.618 basechar 0
AnchorPoint: "Podchashie" 506 20 basechar 0
LayerCount: 2
Fore
SplineSet
730 112 m 0x0bc0
 730 126 746 136 758 136 c 0
 774 136 778 120 778 106 c 0
 778 93 767 83 755 83 c 0
 741 83 730 98 730 112 c 0x0bc0
571 85 m 0
 571 100 585 107 599 107 c 0
 617 107 635 95 635 76 c 0
 635 61 623 52 609 52 c 0x23c0
 590 52 571 67 571 85 c 0
243 48 m 0x43c0
 233 48 224 53 222 66 c 8
 220 73 226 73 234 81 c 0
 239 86 233 92 228 94 c 24
 222 96 217 87 211 90 c 24
 200 94 197 101 188 108 c 17
 188 109 l 2
 188 120 205 124 222 124 c 0x07c0
 254 124 282 104 285 79 c 1
 285 61 259 48 243 48 c 0x43c0
95 22 m 0x83c0
 85 22 76 27 74 40 c 8
 72 47 78 47 86 55 c 0
 91 60 85 66 80 68 c 24
 74 70 69 61 63 64 c 24x13c0
 52 68 49 75 40 82 c 17
 40 83 l 2x0bc0
 40 94 57 98 74 98 c 0x13c0
 106 98 134 78 137 53 c 1
 137 35 111 22 95 22 c 0x83c0
317 164 m 1
 328 167 339 170 349 170 c 0
 364 170 381 161 389 148 c 0
 394 139 395 135 399 127 c 25
 599 186 742 232 913 279 c 1
 923 283 931 284 938 284 c 0
 954 284 960 274 959 264 c 1
 959 249 851 218 834 214 c 1
 719 178 630 156 418 92 c 0
 409 89 404 86 394 86 c 27
 351 86 325 156 317 164 c 1
EndSplineSet
EndChar

StartChar: uniEEB4
Encoding: 61108 61108 132
Width: 1046
VWidth: 0
Flags: W
HStem: 21 76<88.2108 125.821> 61 26<157.177 193.529> 63 34<41.6206 79.7195>
VStem: 74 63<26.0625 53.6308> 207 52<118 170.383> 226 45<54.4233 76>
DStem2: 446 142 465 107 0.957868 0.287211<-2.74824 561.067>
AnchorPoint: "Tonal" 624.252 242.618 basechar 0
AnchorPoint: "Podchashie" 506 20 basechar 0
LayerCount: 2
Fore
SplineSet
234 171 m 0x58
 265 171 252 147 259 118 c 1x58
 276 123 295 132 311 132 c 0
 320 132 337 122 337 114 c 0
 337 95 271 82 271 82 c 1
 273 74 278 63 278 54 c 0
 278 42 267 40 255 40 c 0
 233 40 237 62 226 76 c 25x54
 206 70 226 76 174 61 c 0
 167 59 157 67 157 76 c 0
 157 80 158 83 157 87 c 1
 177 97 190 97 209 105 c 1
 210 117 207 124 207 133 c 0
 207 151 214 171 234 171 c 0x58
95 21 m 0x90
 85 21 76 26 74 39 c 8
 72 46 78 46 86 54 c 0
 91 59 85 65 80 67 c 24
 74 69 69 60 63 63 c 24
 52 67 49 74 40 81 c 17
 40 82 l 2
 40 93 57 97 74 97 c 0x30
 106 97 134 77 137 52 c 1
 137 34 111 21 95 21 c 0x90
364 179 m 1
 375 182 386 185 396 185 c 0
 411 185 428 176 436 163 c 0
 441 154 442 150 446 142 c 25
 646 201 789 247 960 294 c 1
 970 298 978 299 985 299 c 0
 1001 299 1007 289 1006 279 c 1
 1006 264 898 233 881 229 c 1
 766 193 677 171 465 107 c 0
 456 104 451 101 441 101 c 27
 398 101 372 171 364 179 c 1
EndSplineSet
Colour: ff0000
EndChar

StartChar: uniEEB6
Encoding: 61110 61110 133
Width: 853
VWidth: 0
Flags: W
HStem: 22 76<88.2108 125.821> 64 34<41.6206 79.7195>
VStem: 74 63<27.0625 54.6308>
DStem2: 245 125 262 89 0.973035 0.230659<-2.49944 555.943>
AnchorPoint: "Podchashie" 523.031 94.6377 basechar 0
AnchorPoint: "Tonal" 432.603 219.803 basechar 0
LayerCount: 2
Fore
SplineSet
95 22 m 0xa0
 85 22 76 27 74 40 c 8
 72 47 78 47 86 55 c 0
 91 60 85 66 80 68 c 24
 74 70 69 61 63 64 c 24
 52 68 49 75 40 82 c 17
 40 83 l 2
 40 94 57 98 74 98 c 0x60
 106 98 134 78 137 53 c 1
 137 35 111 22 95 22 c 0xa0
166 166 m 5
 175 168 185 170 193 170 c 4
 212 170 227 164 237 146 c 4
 241 137 242 133 245 125 c 29
 448 172 594 210 767 247 c 4
 774 249 781 250 787 250 c 4
 802 250 815 244 812 229 c 5
 811 215 702 190 685 187 c 5
 568 157 478 140 262 89 c 4
 254 86 249 84 241 84 c 4
 196 84 173 158 166 166 c 5
EndSplineSet
Colour: ff0000
EndChar

StartChar: uniEEB7
Encoding: 61111 61111 134
Width: 990
VWidth: 0
Flags: W
HStem: 4 53<246.666 314.107> 22 92<98.2969 140> 73 41<43.1775 88.6264> 93 50<203.353 264.025>
VStem: 81 77<30.4389 61.5846> 201 65<96.8819 139.063> 245 70<6.22061 53.7394>
DStem2: 383 116 400 80 0.971922 0.235302<-2.23292 556.626>
AnchorPoint: "Podchashie" 599.74 86.876 basechar 0
AnchorPoint: "Tonal" 575.878 202.127 basechar 0
LayerCount: 2
Fore
SplineSet
303 158 m 1x08
 313 160 323 161 331 161 c 0
 350 161 365 155 374 138 c 0
 379 129 380 124 383 116 c 25
 586 164 732 203 905 240 c 1
 911 243 919 244 925 244 c 0
 939 244 950 239 950 226 c 0
 950 225 950 224 950 223 c 0
 949 208 840 183 822 180 c 1
 706 150 616 133 400 80 c 0
 391 78 386 75 376 76 c 24
 333 78 311 149 303 158 c 1x08
315 30 m 0x8a
 315 10 295 4 279 4 c 0
 259 4 245 20 245 34 c 0
 245 47 257 57 278 57 c 0
 295 57 315 44 315 30 c 0x8a
227 143 m 0x1c
 246 143 266 128 266 113 c 0
 266 99 253 93 240 93 c 0
 220 93 201 109 201 124 c 0
 201 133 210 143 227 143 c 0x1c
107 22 m 0x48
 95 22 84 28 81 44 c 0
 79 53 87 53 95 62 c 0
 102 69 95 75 89 78 c 0
 81 81 75 70 67 73 c 0
 54 78 51 87 40 96 c 1
 40 97 l 2
 40 109 61 114 81 114 c 0x28
 121 114 155 90 158 59 c 1
 158 38 127 22 107 22 c 0x48
EndSplineSet
EndChar

StartChar: uniEEB8
Encoding: 61112 61112 135
Width: 1089
VWidth: 0
Flags: W
HStem: 4 53<365.666 433.107> 8 75<72.625 110.263> 22 92<217.297 260.891> 49 34<28.1294 63.7202> 73 41<162.177 207.626> 93 50<322.353 383.025>
VStem: 58 62<12.3993 40.6308> 200 77<30.4389 61.5846> 320 65<96.8819 139.063> 364 70<6.22061 53.7394>
DStem2: 496 116 513 80 0.971922 0.235302<-2.48523 556.626>
AnchorPoint: "Podchashie" 777.74 108.876 basechar 0
AnchorPoint: "Tonal" 696.878 216.127 basechar 0
LayerCount: 2
Fore
SplineSet
416 158 m 1x03
 426 160 436 161 444 161 c 0
 463 161 478 155 487 138 c 0
 492 129 493 124 496 116 c 25
 699 164 845 203 1018 240 c 1
 1024 243 1032 244 1038 244 c 0
 1052 244 1063 239 1063 226 c 0
 1063 225 1063 224 1063 223 c 0
 1063 208 953 183 935 180 c 1
 819 150 729 133 513 80 c 0
 504 78 499 76 489 76 c 24
 446 76 424 149 416 158 c 1x03
80 8 m 0x43
 70 8 60 13 58 26 c 0
 56 33 64 33 70 41 c 1
 76 46 70 51 64 53 c 0
 58 55 54 47 48 49 c 0
 36 53 34 60 26 68 c 1
 26 69 l 2
 26 79 42 83 58 83 c 0x13
 90 83 120 63 120 38 c 0
 120 21 96 8 80 8 c 0x43
434 30 m 0x8340
 434 10 414 4 398 4 c 0
 378 4 364 20 364 34 c 0
 364 47 376 57 397 57 c 0
 414 57 434 44 434 30 c 0x8340
346 143 m 0x0780
 365 143 385 128 385 113 c 0
 385 99 372 93 359 93 c 0
 339 93 320 109 320 124 c 0
 320 133 329 143 346 143 c 0x0780
226 22 m 0x23
 214 22 203 28 200 44 c 0
 198 53 206 53 214 62 c 0
 221 69 214 75 208 78 c 0
 200 81 194 70 186 73 c 0
 173 78 170 87 159 96 c 1
 159 97 l 2
 159 109 180 114 200 114 c 0x0b
 240 114 277 90 277 59 c 0
 277 38 246 22 226 22 c 0x23
EndSplineSet
Colour: ff0000
EndChar

StartChar: uniEEBA
Encoding: 61114 61114 136
Width: 839
VWidth: 0
Flags: W
HStem: 22 55<104.209 175.126> 117 58<147.898 208.673> 167 58<253.898 314.673>
VStem: 40 63<60.1016 115.245> 146 64<119.469 171.152> 252 64<169.469 221.152>
DStem2: 366 253 384 231 0.894263 0.447541<-11.9716 465.297>
LayerCount: 2
Fore
SplineSet
765 458 m 0x9c
 769 460 776 462 782 462 c 0
 790 462 799 458 799 449 c 0
 799 440 790 433 782 429 c 0
 627 355 534 308 384 231 c 9
 376 231 369 225 363 232 c 0
 356 238 359 249 366 253 c 24
 518 339 583 365 765 458 c 0x9c
276 225 m 0xbc
 297 225 316 210 316 198 c 0
 316 181 304 167 287 167 c 27
 268 167 252 181 252 199 c 19
 252 213 260 225 276 225 c 0xbc
170 175 m 0xdc
 191 175 210 160 210 148 c 0
 210 131 198 117 181 117 c 27
 162 117 146 131 146 149 c 19
 146 163 154 175 170 175 c 0xdc
103 60 m 9
 129 67 142 77 170 77 c 0
 181 77 190 74 190 58 c 0
 190 44 131 22 92 22 c 0
 76 22 63 26 60 35 c 0
 52 56 43 81 40 106 c 1
 56 116 71 118 79 118 c 0
 97 118 94 95 103 60 c 9
EndSplineSet
Colour: ff0000
EndChar

StartChar: uniEEBB
Encoding: 61115 61115 137
Width: 829
VWidth: 0
Flags: W
HStem: 22 55<96.4797 158.888>
VStem: 49 46<65 120.86> 56 50<79.0298 130.727>
DStem2: 245 131 262 95 0.973035 0.230659<-2.49944 555.943>
AnchorPoint: "Tonal" 432.603 225.803 basechar 0
AnchorPoint: "Podchashie" 523.031 100.638 basechar 0
LayerCount: 2
Fore
SplineSet
166 172 m 5x80
 175 174 185 176 193 176 c 4
 212 176 227 170 237 152 c 4
 241 143 242 139 245 131 c 25
 448 178 594 216 767 253 c 0
 774 255 781 256 787 256 c 0
 801 256 812 251 812 239 c 0
 812 238 812 236 812 235 c 1
 812 221 702 196 685 193 c 1
 568 163 478 146 262 95 c 1
 254 92 249 90 241 90 c 0
 196 90 173 164 166 172 c 5x80
73 22 m 0
 54 22 49 35 49 53 c 0xc0
 49 73 56 99 56 115 c 0
 56 117 56 118 56 120 c 1
 63 125 87 136 99 136 c 0
 104 136 106 134 106 130 c 0xa0
 106 120 95 100 95 78 c 0xc0
 95 74 95 69 96 65 c 1
 106 67 131 77 149 77 c 0
 161 77 171 72 171 59 c 0
 171 50 162 44 146 38 c 0
 125 29 96 22 73 22 c 0
EndSplineSet
Colour: ff0000
EndChar

StartChar: uniEEBC
Encoding: 61116 61116 138
Width: 932
VWidth: 0
Flags: W
HStem: 22 55<104.209 168.239> 117 58<147.898 208.673> 167 58<253.898 314.673> 230 76<324.562 360.53>
VStem: 40 63<60.1016 115.245> 146 64<119.469 171.152> 252 64<169.469 221.152>
DStem2: 373 272 397 241 0.899434 0.437057<-1.7554 565.879>
AnchorPoint: "Podchashie" 621.177 277.547 basechar 0
AnchorPoint: "Tonal" 486.115 408.086 basechar 0
LayerCount: 2
Fore
SplineSet
886 512 m 0x9e
 895 512 904 506 904 495 c 0
 904 480 805 434 789 427 c 1
 682 373 597 337 397 241 c 1
 388 235 382 230 369 230 c 0
 329 230 295 289 287 295 c 1
 300 301 314 306 327 306 c 0
 339 306 351 302 361 291 c 0
 366 283 368 279 373 272 c 25
 561 362 696 430 857 503 c 0
 864 507 876 512 886 512 c 0x9e
276 225 m 0xbe
 297 225 316 210 316 198 c 0
 316 181 304 167 287 167 c 27
 268 167 252 181 252 199 c 19
 252 213 260 225 276 225 c 0xbe
170 175 m 0xde
 191 175 210 160 210 148 c 0
 210 131 198 117 181 117 c 27
 162 117 146 131 146 149 c 19
 146 163 154 175 170 175 c 0xde
103 60 m 9
 129 67 142 77 170 77 c 0
 181 77 190 74 190 58 c 1
 187 47 126 27 92 22 c 1
 76 22 63 26 60 35 c 0
 52 56 43 81 40 106 c 1
 56 116 71 118 79 118 c 0
 97 118 94 95 103 60 c 9
EndSplineSet
Colour: ff0000
EndChar

StartChar: uniEEBE
Encoding: 61118 61118 139
Width: 858
VWidth: 0
Flags: W
HStem: 25 21G<126.5 131> 80 33<40.6325 87.8568 230.401 261.607> 157 56<271.62 318.916> 311 23<789.021 793.043>
DStem2: 47 113 66 81 0.932637 0.360815<0.304814 126.2> 117 58 137 26 0.929881 0.367861<0.0362091 138.26> 327 186 330 159 0.926564 0.376138<-6.49507 489.614>
AnchorPoint: "Podchashie" 449 98 basechar 0
AnchorPoint: "Tonal" 447 282 basechar 0
LayerCount: 2
Fore
SplineSet
799 368 m 0
 811 368 833 360 833 337 c 0
 833 325 816 313 796 311 c 0
 789 311 784 313 782 321 c 1
 778 325 779 331 786 334 c 8
 790 335 794 336 793 340 c 16
 791 345 786 344 780 341 c 0
 602 269 412 191 330 159 c 0
 325 158 321 157 317 157 c 0
 311 157 305 159 298 162 c 8
 284 170 260 182 260 198 c 0
 260 204 278 213 288 213 c 0
 305 213 311 194 327 186 c 1
 514 260 780 364 780 364 c 2
 785 366 792 368 799 368 c 0
117 58 m 0
 179 82 186 86 240 107 c 0
 242 108 244 108 246 108 c 0
 256 108 264 97 264 87 c 0
 264 82 261 77 255 74 c 0
 206 54 184 44 137 26 c 0
 134 25 132 25 130 25 c 0
 123 25 115 30 113 37 c 0
 110 45 109 55 117 58 c 0
60 80 m 0
 49 80 40 89 40 102 c 0
 40 107 42 111 47 113 c 0
 108 137 106 135 159 157 c 0
 161 158 163 158 165 158 c 0
 176 158 184 147 184 137 c 0
 184 131 181 126 175 124 c 0
 125 104 114 99 66 81 c 0
 64 80 62 80 60 80 c 0
EndSplineSet
EndChar
